<?xml version="1.0" encoding="utf-8"?>
<svg xmlns="http://www.w3.org/2000/svg" xmlns:xlink="http://www.w3.org/1999/xlink" width="672" height="480" viewBox="0 0 2688 1920">
<defs>
  <clipPath id="clip890">
    <rect x="0" y="0" width="2688" height="1920"/>
  </clipPath>
</defs>
<path clip-path="url(#clip890)" d="M0 1920 L2688 1920 L2688 0 L0 0  Z" fill="#ffffff" fill-rule="evenodd" fill-opacity="1"/>
<defs>
  <clipPath id="clip891">
    <rect x="537" y="0" width="1883" height="1883"/>
  </clipPath>
</defs>
<path clip-path="url(#clip890)" d="M89.8721 1734.12 L2640.76 1734.12 L2640.76 47.2441 L89.8721 47.2441  Z" fill="#ffffff" fill-rule="evenodd" fill-opacity="1"/>
<defs>
  <clipPath id="clip892">
    <rect x="89" y="47" width="2552" height="1688"/>
  </clipPath>
</defs>
<polyline clip-path="url(#clip892)" style="stroke:#000000; stroke-linecap:round; stroke-linejoin:round; stroke-width:2; stroke-opacity:0.1; fill:none" points="462.879,1734.12 462.879,47.2441 "/>
<polyline clip-path="url(#clip892)" style="stroke:#000000; stroke-linecap:round; stroke-linejoin:round; stroke-width:2; stroke-opacity:0.1; fill:none" points="914.096,1734.12 914.096,47.2441 "/>
<polyline clip-path="url(#clip892)" style="stroke:#000000; stroke-linecap:round; stroke-linejoin:round; stroke-width:2; stroke-opacity:0.1; fill:none" points="1365.31,1734.12 1365.31,47.2441 "/>
<polyline clip-path="url(#clip892)" style="stroke:#000000; stroke-linecap:round; stroke-linejoin:round; stroke-width:2; stroke-opacity:0.1; fill:none" points="1816.53,1734.12 1816.53,47.2441 "/>
<polyline clip-path="url(#clip892)" style="stroke:#000000; stroke-linecap:round; stroke-linejoin:round; stroke-width:2; stroke-opacity:0.1; fill:none" points="2267.75,1734.12 2267.75,47.2441 "/>
<polyline clip-path="url(#clip892)" style="stroke:#000000; stroke-linecap:round; stroke-linejoin:round; stroke-width:2; stroke-opacity:0.05; fill:none" points="101.905,1734.12 101.905,47.2441 "/>
<polyline clip-path="url(#clip892)" style="stroke:#000000; stroke-linecap:round; stroke-linejoin:round; stroke-width:2; stroke-opacity:0.05; fill:none" points="192.148,1734.12 192.148,47.2441 "/>
<polyline clip-path="url(#clip892)" style="stroke:#000000; stroke-linecap:round; stroke-linejoin:round; stroke-width:2; stroke-opacity:0.05; fill:none" points="282.392,1734.12 282.392,47.2441 "/>
<polyline clip-path="url(#clip892)" style="stroke:#000000; stroke-linecap:round; stroke-linejoin:round; stroke-width:2; stroke-opacity:0.05; fill:none" points="372.635,1734.12 372.635,47.2441 "/>
<polyline clip-path="url(#clip892)" style="stroke:#000000; stroke-linecap:round; stroke-linejoin:round; stroke-width:2; stroke-opacity:0.05; fill:none" points="553.122,1734.12 553.122,47.2441 "/>
<polyline clip-path="url(#clip892)" style="stroke:#000000; stroke-linecap:round; stroke-linejoin:round; stroke-width:2; stroke-opacity:0.05; fill:none" points="643.366,1734.12 643.366,47.2441 "/>
<polyline clip-path="url(#clip892)" style="stroke:#000000; stroke-linecap:round; stroke-linejoin:round; stroke-width:2; stroke-opacity:0.05; fill:none" points="733.609,1734.12 733.609,47.2441 "/>
<polyline clip-path="url(#clip892)" style="stroke:#000000; stroke-linecap:round; stroke-linejoin:round; stroke-width:2; stroke-opacity:0.05; fill:none" points="823.853,1734.12 823.853,47.2441 "/>
<polyline clip-path="url(#clip892)" style="stroke:#000000; stroke-linecap:round; stroke-linejoin:round; stroke-width:2; stroke-opacity:0.05; fill:none" points="1004.34,1734.12 1004.34,47.2441 "/>
<polyline clip-path="url(#clip892)" style="stroke:#000000; stroke-linecap:round; stroke-linejoin:round; stroke-width:2; stroke-opacity:0.05; fill:none" points="1094.58,1734.12 1094.58,47.2441 "/>
<polyline clip-path="url(#clip892)" style="stroke:#000000; stroke-linecap:round; stroke-linejoin:round; stroke-width:2; stroke-opacity:0.05; fill:none" points="1184.83,1734.12 1184.83,47.2441 "/>
<polyline clip-path="url(#clip892)" style="stroke:#000000; stroke-linecap:round; stroke-linejoin:round; stroke-width:2; stroke-opacity:0.05; fill:none" points="1275.07,1734.12 1275.07,47.2441 "/>
<polyline clip-path="url(#clip892)" style="stroke:#000000; stroke-linecap:round; stroke-linejoin:round; stroke-width:2; stroke-opacity:0.05; fill:none" points="1455.56,1734.12 1455.56,47.2441 "/>
<polyline clip-path="url(#clip892)" style="stroke:#000000; stroke-linecap:round; stroke-linejoin:round; stroke-width:2; stroke-opacity:0.05; fill:none" points="1545.8,1734.12 1545.8,47.2441 "/>
<polyline clip-path="url(#clip892)" style="stroke:#000000; stroke-linecap:round; stroke-linejoin:round; stroke-width:2; stroke-opacity:0.05; fill:none" points="1636.04,1734.12 1636.04,47.2441 "/>
<polyline clip-path="url(#clip892)" style="stroke:#000000; stroke-linecap:round; stroke-linejoin:round; stroke-width:2; stroke-opacity:0.05; fill:none" points="1726.29,1734.12 1726.29,47.2441 "/>
<polyline clip-path="url(#clip892)" style="stroke:#000000; stroke-linecap:round; stroke-linejoin:round; stroke-width:2; stroke-opacity:0.05; fill:none" points="1906.78,1734.12 1906.78,47.2441 "/>
<polyline clip-path="url(#clip892)" style="stroke:#000000; stroke-linecap:round; stroke-linejoin:round; stroke-width:2; stroke-opacity:0.05; fill:none" points="1997.02,1734.12 1997.02,47.2441 "/>
<polyline clip-path="url(#clip892)" style="stroke:#000000; stroke-linecap:round; stroke-linejoin:round; stroke-width:2; stroke-opacity:0.05; fill:none" points="2087.26,1734.12 2087.26,47.2441 "/>
<polyline clip-path="url(#clip892)" style="stroke:#000000; stroke-linecap:round; stroke-linejoin:round; stroke-width:2; stroke-opacity:0.05; fill:none" points="2177.51,1734.12 2177.51,47.2441 "/>
<polyline clip-path="url(#clip892)" style="stroke:#000000; stroke-linecap:round; stroke-linejoin:round; stroke-width:2; stroke-opacity:0.05; fill:none" points="2357.99,1734.12 2357.99,47.2441 "/>
<polyline clip-path="url(#clip892)" style="stroke:#000000; stroke-linecap:round; stroke-linejoin:round; stroke-width:2; stroke-opacity:0.05; fill:none" points="2448.24,1734.12 2448.24,47.2441 "/>
<polyline clip-path="url(#clip892)" style="stroke:#000000; stroke-linecap:round; stroke-linejoin:round; stroke-width:2; stroke-opacity:0.05; fill:none" points="2538.48,1734.12 2538.48,47.2441 "/>
<polyline clip-path="url(#clip892)" style="stroke:#000000; stroke-linecap:round; stroke-linejoin:round; stroke-width:2; stroke-opacity:0.05; fill:none" points="2628.72,1734.12 2628.72,47.2441 "/>
<polyline clip-path="url(#clip890)" style="stroke:#000000; stroke-linecap:round; stroke-linejoin:round; stroke-width:4; stroke-opacity:1; fill:none" points="89.8721,1734.12 2640.76,1734.12 "/>
<polyline clip-path="url(#clip890)" style="stroke:#000000; stroke-linecap:round; stroke-linejoin:round; stroke-width:4; stroke-opacity:1; fill:none" points="462.879,1734.12 462.879,1715.22 "/>
<polyline clip-path="url(#clip890)" style="stroke:#000000; stroke-linecap:round; stroke-linejoin:round; stroke-width:4; stroke-opacity:1; fill:none" points="914.096,1734.12 914.096,1715.22 "/>
<polyline clip-path="url(#clip890)" style="stroke:#000000; stroke-linecap:round; stroke-linejoin:round; stroke-width:4; stroke-opacity:1; fill:none" points="1365.31,1734.12 1365.31,1715.22 "/>
<polyline clip-path="url(#clip890)" style="stroke:#000000; stroke-linecap:round; stroke-linejoin:round; stroke-width:4; stroke-opacity:1; fill:none" points="1816.53,1734.12 1816.53,1715.22 "/>
<polyline clip-path="url(#clip890)" style="stroke:#000000; stroke-linecap:round; stroke-linejoin:round; stroke-width:4; stroke-opacity:1; fill:none" points="2267.75,1734.12 2267.75,1715.22 "/>
<polyline clip-path="url(#clip890)" style="stroke:#000000; stroke-linecap:round; stroke-linejoin:round; stroke-width:4; stroke-opacity:1; fill:none" points="101.905,1734.12 101.905,1724.67 "/>
<polyline clip-path="url(#clip890)" style="stroke:#000000; stroke-linecap:round; stroke-linejoin:round; stroke-width:4; stroke-opacity:1; fill:none" points="192.148,1734.12 192.148,1724.67 "/>
<polyline clip-path="url(#clip890)" style="stroke:#000000; stroke-linecap:round; stroke-linejoin:round; stroke-width:4; stroke-opacity:1; fill:none" points="282.392,1734.12 282.392,1724.67 "/>
<polyline clip-path="url(#clip890)" style="stroke:#000000; stroke-linecap:round; stroke-linejoin:round; stroke-width:4; stroke-opacity:1; fill:none" points="372.635,1734.12 372.635,1724.67 "/>
<polyline clip-path="url(#clip890)" style="stroke:#000000; stroke-linecap:round; stroke-linejoin:round; stroke-width:4; stroke-opacity:1; fill:none" points="553.122,1734.12 553.122,1724.67 "/>
<polyline clip-path="url(#clip890)" style="stroke:#000000; stroke-linecap:round; stroke-linejoin:round; stroke-width:4; stroke-opacity:1; fill:none" points="643.366,1734.12 643.366,1724.67 "/>
<polyline clip-path="url(#clip890)" style="stroke:#000000; stroke-linecap:round; stroke-linejoin:round; stroke-width:4; stroke-opacity:1; fill:none" points="733.609,1734.12 733.609,1724.67 "/>
<polyline clip-path="url(#clip890)" style="stroke:#000000; stroke-linecap:round; stroke-linejoin:round; stroke-width:4; stroke-opacity:1; fill:none" points="823.853,1734.12 823.853,1724.67 "/>
<polyline clip-path="url(#clip890)" style="stroke:#000000; stroke-linecap:round; stroke-linejoin:round; stroke-width:4; stroke-opacity:1; fill:none" points="1004.34,1734.12 1004.34,1724.67 "/>
<polyline clip-path="url(#clip890)" style="stroke:#000000; stroke-linecap:round; stroke-linejoin:round; stroke-width:4; stroke-opacity:1; fill:none" points="1094.58,1734.12 1094.58,1724.67 "/>
<polyline clip-path="url(#clip890)" style="stroke:#000000; stroke-linecap:round; stroke-linejoin:round; stroke-width:4; stroke-opacity:1; fill:none" points="1184.83,1734.12 1184.83,1724.67 "/>
<polyline clip-path="url(#clip890)" style="stroke:#000000; stroke-linecap:round; stroke-linejoin:round; stroke-width:4; stroke-opacity:1; fill:none" points="1275.07,1734.12 1275.07,1724.67 "/>
<polyline clip-path="url(#clip890)" style="stroke:#000000; stroke-linecap:round; stroke-linejoin:round; stroke-width:4; stroke-opacity:1; fill:none" points="1455.56,1734.12 1455.56,1724.67 "/>
<polyline clip-path="url(#clip890)" style="stroke:#000000; stroke-linecap:round; stroke-linejoin:round; stroke-width:4; stroke-opacity:1; fill:none" points="1545.8,1734.12 1545.8,1724.67 "/>
<polyline clip-path="url(#clip890)" style="stroke:#000000; stroke-linecap:round; stroke-linejoin:round; stroke-width:4; stroke-opacity:1; fill:none" points="1636.04,1734.12 1636.04,1724.67 "/>
<polyline clip-path="url(#clip890)" style="stroke:#000000; stroke-linecap:round; stroke-linejoin:round; stroke-width:4; stroke-opacity:1; fill:none" points="1726.29,1734.12 1726.29,1724.67 "/>
<polyline clip-path="url(#clip890)" style="stroke:#000000; stroke-linecap:round; stroke-linejoin:round; stroke-width:4; stroke-opacity:1; fill:none" points="1906.78,1734.12 1906.78,1724.67 "/>
<polyline clip-path="url(#clip890)" style="stroke:#000000; stroke-linecap:round; stroke-linejoin:round; stroke-width:4; stroke-opacity:1; fill:none" points="1997.02,1734.12 1997.02,1724.67 "/>
<polyline clip-path="url(#clip890)" style="stroke:#000000; stroke-linecap:round; stroke-linejoin:round; stroke-width:4; stroke-opacity:1; fill:none" points="2087.26,1734.12 2087.26,1724.67 "/>
<polyline clip-path="url(#clip890)" style="stroke:#000000; stroke-linecap:round; stroke-linejoin:round; stroke-width:4; stroke-opacity:1; fill:none" points="2177.51,1734.12 2177.51,1724.67 "/>
<polyline clip-path="url(#clip890)" style="stroke:#000000; stroke-linecap:round; stroke-linejoin:round; stroke-width:4; stroke-opacity:1; fill:none" points="2357.99,1734.12 2357.99,1724.67 "/>
<polyline clip-path="url(#clip890)" style="stroke:#000000; stroke-linecap:round; stroke-linejoin:round; stroke-width:4; stroke-opacity:1; fill:none" points="2448.24,1734.12 2448.24,1724.67 "/>
<polyline clip-path="url(#clip890)" style="stroke:#000000; stroke-linecap:round; stroke-linejoin:round; stroke-width:4; stroke-opacity:1; fill:none" points="2538.48,1734.12 2538.48,1724.67 "/>
<polyline clip-path="url(#clip890)" style="stroke:#000000; stroke-linecap:round; stroke-linejoin:round; stroke-width:4; stroke-opacity:1; fill:none" points="2628.72,1734.12 2628.72,1724.67 "/>
<path clip-path="url(#clip890)" d="M466.461 1785.46 Q466.757 1785.75 466.757 1786.17 Q466.757 1786.59 466.461 1786.89 Q466.164 1787.19 465.744 1787.19 L434.075 1787.19 Q433.655 1787.19 433.358 1786.89 Q433.062 1786.59 433.062 1786.17 Q433.062 1785.75 433.358 1785.46 Q433.655 1785.16 434.075 1785.16 L465.744 1785.16 Q466.164 1785.16 466.461 1785.46 Z" fill="#000000" fill-rule="evenodd" fill-opacity="1" /><path clip-path="url(#clip890)" d="M471.698 1782.84 Q471.698 1774.88 475.749 1770.02 Q479.801 1765.13 485.013 1765.13 Q488.051 1765.13 489.731 1766.68 Q491.436 1768.21 491.436 1770.59 Q491.436 1771.89 490.67 1772.46 Q489.904 1773.03 489.114 1773.03 Q488.2 1773.03 487.483 1772.41 Q486.767 1771.8 486.767 1770.68 Q486.767 1768.41 489.558 1768.41 Q488.249 1766.39 485.112 1766.39 Q484.148 1766.39 483.16 1766.68 Q482.172 1766.95 480.887 1767.89 Q479.603 1768.83 478.615 1770.31 Q477.627 1771.8 476.935 1774.59 Q476.243 1777.38 476.243 1781.01 L476.243 1782.22 Q478.318 1777.21 482.567 1777.23 Q486.816 1777.23 489.756 1780.47 Q492.696 1783.7 492.696 1788.49 Q492.696 1793.41 489.632 1796.67 Q486.569 1799.93 482.271 1799.93 Q480.344 1799.93 478.59 1799.12 Q476.861 1798.33 475.23 1796.5 Q473.625 1794.67 472.661 1791.16 Q471.698 1787.66 471.698 1782.84 M476.342 1787.38 Q476.342 1792.35 477.256 1794.72 Q477.404 1795.12 477.725 1795.66 Q478.071 1796.2 478.639 1796.92 Q479.232 1797.61 480.196 1798.08 Q481.159 1798.52 482.271 1798.52 Q485.655 1798.52 487.286 1795.24 Q488.15 1793.41 488.15 1788.45 Q488.15 1783.38 487.236 1781.53 Q485.68 1778.39 482.518 1778.39 Q480.393 1778.39 478.911 1779.85 Q477.454 1781.31 476.886 1783.26 Q476.342 1785.21 476.342 1787.38 Z" fill="#000000" fill-rule="evenodd" fill-opacity="1" /><path clip-path="url(#clip890)" d="M917.678 1785.46 Q917.975 1785.75 917.975 1786.17 Q917.975 1786.59 917.678 1786.89 Q917.382 1787.19 916.962 1787.19 L885.292 1787.19 Q884.872 1787.19 884.576 1786.89 Q884.279 1786.59 884.279 1786.17 Q884.279 1785.75 884.576 1785.46 Q884.872 1785.16 885.292 1785.16 L916.962 1785.16 Q917.382 1785.16 917.678 1785.46 Z" fill="#000000" fill-rule="evenodd" fill-opacity="1" /><path clip-path="url(#clip890)" d="M922.915 1792 Q922.915 1790.5 923.78 1789.78 Q924.645 1789.06 925.756 1789.06 Q926.917 1789.06 927.733 1789.83 Q928.573 1790.57 928.573 1791.88 Q928.573 1793.29 927.584 1794.08 Q926.621 1794.87 925.238 1794.67 Q926.448 1796.7 928.671 1797.61 Q930.919 1798.52 932.994 1798.52 Q935.168 1798.52 936.922 1796.65 Q938.701 1794.77 938.701 1790.17 Q938.701 1786.27 937.169 1784.02 Q935.662 1781.78 932.673 1781.78 L930.45 1781.78 Q929.684 1781.78 929.462 1781.7 Q929.24 1781.63 929.24 1781.21 Q929.24 1780.71 930.005 1780.61 Q930.771 1780.61 931.982 1780.47 Q934.921 1780.37 936.478 1777.82 Q937.886 1775.45 937.886 1772.07 Q937.886 1768.98 936.403 1767.69 Q934.946 1766.39 933.044 1766.39 Q931.265 1766.39 929.314 1767.13 Q927.362 1767.87 926.3 1769.52 Q929.437 1769.52 929.437 1772.07 Q929.437 1773.18 928.721 1773.92 Q928.029 1774.64 926.868 1774.64 Q925.756 1774.64 925.015 1773.94 Q924.274 1773.23 924.274 1772.02 Q924.274 1769.13 926.843 1767.13 Q929.437 1765.13 933.241 1765.13 Q936.996 1765.13 939.763 1767.1 Q942.555 1769.08 942.555 1772.12 Q942.555 1775.11 940.578 1777.55 Q938.602 1780 935.465 1781.01 Q939.318 1781.78 941.616 1784.39 Q943.913 1786.99 943.913 1790.17 Q943.913 1794.13 940.801 1797.04 Q937.688 1799.93 933.143 1799.93 Q928.943 1799.93 925.929 1797.66 Q922.915 1795.39 922.915 1792 Z" fill="#000000" fill-rule="evenodd" fill-opacity="1" /><path clip-path="url(#clip890)" d="M1354.67 1782.64 Q1354.67 1775.2 1356.54 1771.15 Q1359.16 1765.13 1365.34 1765.13 Q1366.65 1765.13 1368.01 1765.5 Q1369.39 1765.84 1371.12 1767.2 Q1372.87 1768.56 1373.94 1770.78 Q1375.96 1775.08 1375.96 1782.64 Q1375.96 1790.03 1374.08 1794.05 Q1371.34 1799.93 1365.29 1799.93 Q1363.02 1799.93 1360.69 1798.77 Q1358.4 1797.61 1356.94 1794.82 Q1354.67 1790.64 1354.67 1782.64 M1358.87 1782.02 Q1358.87 1789.66 1359.41 1792.69 Q1360.03 1795.98 1361.71 1797.41 Q1363.41 1798.82 1365.29 1798.82 Q1367.31 1798.82 1368.99 1797.31 Q1370.7 1795.78 1371.22 1792.5 Q1371.79 1789.26 1371.76 1782.02 Q1371.76 1774.98 1371.27 1772.17 Q1370.6 1768.88 1368.82 1767.57 Q1367.07 1766.24 1365.29 1766.24 Q1364.62 1766.24 1363.91 1766.43 Q1363.21 1766.63 1362.2 1767.2 Q1361.19 1767.77 1360.4 1769.18 Q1359.63 1770.59 1359.26 1772.71 Q1358.87 1775.45 1358.87 1782.02 Z" fill="#000000" fill-rule="evenodd" fill-opacity="1" /><path clip-path="url(#clip890)" d="M1806.03 1792 Q1806.03 1790.5 1806.9 1789.78 Q1807.76 1789.06 1808.87 1789.06 Q1810.03 1789.06 1810.85 1789.83 Q1811.69 1790.57 1811.69 1791.88 Q1811.69 1793.29 1810.7 1794.08 Q1809.74 1794.87 1808.35 1794.67 Q1809.57 1796.7 1811.79 1797.61 Q1814.04 1798.52 1816.11 1798.52 Q1818.29 1798.52 1820.04 1796.65 Q1821.82 1794.77 1821.82 1790.17 Q1821.82 1786.27 1820.29 1784.02 Q1818.78 1781.78 1815.79 1781.78 L1813.57 1781.78 Q1812.8 1781.78 1812.58 1781.7 Q1812.36 1781.63 1812.36 1781.21 Q1812.36 1780.71 1813.12 1780.61 Q1813.89 1780.61 1815.1 1780.47 Q1818.04 1780.37 1819.59 1777.82 Q1821 1775.45 1821 1772.07 Q1821 1768.98 1819.52 1767.69 Q1818.06 1766.39 1816.16 1766.39 Q1814.38 1766.39 1812.43 1767.13 Q1810.48 1767.87 1809.42 1769.52 Q1812.55 1769.52 1812.55 1772.07 Q1812.55 1773.18 1811.84 1773.92 Q1811.15 1774.64 1809.99 1774.64 Q1808.87 1774.64 1808.13 1773.94 Q1807.39 1773.23 1807.39 1772.02 Q1807.39 1769.13 1809.96 1767.13 Q1812.55 1765.13 1816.36 1765.13 Q1820.11 1765.13 1822.88 1767.1 Q1825.67 1769.08 1825.67 1772.12 Q1825.67 1775.11 1823.7 1777.55 Q1821.72 1780 1818.58 1781.01 Q1822.44 1781.78 1824.73 1784.39 Q1827.03 1786.99 1827.03 1790.17 Q1827.03 1794.13 1823.92 1797.04 Q1820.81 1799.93 1816.26 1799.93 Q1812.06 1799.93 1809.05 1797.66 Q1806.03 1795.39 1806.03 1792 Z" fill="#000000" fill-rule="evenodd" fill-opacity="1" /><path clip-path="url(#clip890)" d="M2257.25 1782.84 Q2257.25 1774.88 2261.3 1770.02 Q2265.35 1765.13 2270.57 1765.13 Q2273.6 1765.13 2275.28 1766.68 Q2276.99 1768.21 2276.99 1770.59 Q2276.99 1771.89 2276.22 1772.46 Q2275.46 1773.03 2274.67 1773.03 Q2273.75 1773.03 2273.04 1772.41 Q2272.32 1771.8 2272.32 1770.68 Q2272.32 1768.41 2275.11 1768.41 Q2273.8 1766.39 2270.66 1766.39 Q2269.7 1766.39 2268.71 1766.68 Q2267.72 1766.95 2266.44 1767.89 Q2265.16 1768.83 2264.17 1770.31 Q2263.18 1771.8 2262.49 1774.59 Q2261.8 1777.38 2261.8 1781.01 L2261.8 1782.22 Q2263.87 1777.21 2268.12 1777.23 Q2272.37 1777.23 2275.31 1780.47 Q2278.25 1783.7 2278.25 1788.49 Q2278.25 1793.41 2275.19 1796.67 Q2272.12 1799.93 2267.82 1799.93 Q2265.9 1799.93 2264.14 1799.12 Q2262.41 1798.33 2260.78 1796.5 Q2259.18 1794.67 2258.21 1791.16 Q2257.25 1787.66 2257.25 1782.84 M2261.89 1787.38 Q2261.89 1792.35 2262.81 1794.72 Q2262.96 1795.12 2263.28 1795.66 Q2263.62 1796.2 2264.19 1796.92 Q2264.78 1797.61 2265.75 1798.08 Q2266.71 1798.52 2267.82 1798.52 Q2271.21 1798.52 2272.84 1795.24 Q2273.7 1793.41 2273.7 1788.45 Q2273.7 1783.38 2272.79 1781.53 Q2271.23 1778.39 2268.07 1778.39 Q2265.95 1778.39 2264.46 1779.85 Q2263.01 1781.31 2262.44 1783.26 Q2261.89 1785.21 2261.89 1787.38 Z" fill="#000000" fill-rule="evenodd" fill-opacity="1" /><path clip-path="url(#clip890)" d="M1227.25 1851.85 L1228.58 1836.22 L1271.07 1836.22 L1272.4 1851.85 L1270.66 1851.85 Q1270.39 1848.72 1270.12 1846.92 Q1269.88 1845.12 1269.27 1843.42 Q1268.69 1841.69 1267.95 1840.88 Q1267.23 1840.03 1265.84 1839.38 Q1264.45 1838.7 1262.65 1838.53 Q1260.85 1838.36 1258.13 1838.36 Q1254.94 1838.36 1254.16 1838.5 Q1253.31 1838.7 1253.1 1839.31 Q1252.9 1839.89 1252.9 1841.15 L1252.9 1877.8 Q1252.9 1879.19 1253.17 1879.77 Q1253.48 1880.31 1255.07 1880.75 Q1256.67 1881.16 1260.2 1881.16 L1262.99 1881.16 L1262.99 1883.3 Q1260.13 1883.1 1249.77 1883.1 Q1239.48 1883.1 1236.63 1883.3 L1236.63 1881.16 L1239.41 1881.16 Q1242.95 1881.16 1244.54 1880.75 Q1246.17 1880.31 1246.45 1879.77 Q1246.72 1879.19 1246.72 1877.8 L1246.72 1841.15 Q1246.72 1840.16 1246.65 1839.76 Q1246.58 1839.35 1246.28 1839.01 Q1245.97 1838.63 1245.26 1838.5 Q1244.58 1838.36 1241.52 1838.36 Q1238.8 1838.36 1236.97 1838.53 Q1235.17 1838.7 1233.78 1839.38 Q1232.38 1840.03 1231.64 1840.88 Q1230.92 1841.69 1230.31 1843.42 Q1229.73 1845.12 1229.5 1846.92 Q1229.26 1848.72 1228.99 1851.85 L1227.25 1851.85 Z" fill="#000000" fill-rule="evenodd" fill-opacity="1" /><path clip-path="url(#clip890)" d="M1277.25 1883.3 L1277.25 1881.16 Q1280.96 1881.16 1281.81 1880.72 Q1282.66 1880.24 1282.66 1878 L1282.66 1859.29 Q1282.66 1856.7 1281.77 1856.09 Q1280.92 1855.48 1277.53 1855.48 L1277.53 1853.31 L1287.24 1852.56 L1287.24 1878.07 Q1287.24 1880.14 1287.99 1880.65 Q1288.74 1881.16 1292.13 1881.16 L1292.13 1883.3 Q1285.03 1883.1 1284.9 1883.1 Q1283.95 1883.1 1277.25 1883.3 M1280.18 1840.43 Q1280.18 1839.04 1281.23 1837.92 Q1282.32 1836.77 1283.84 1836.77 Q1285.37 1836.77 1286.46 1837.82 Q1287.55 1838.84 1287.55 1840.47 Q1287.55 1842.06 1286.46 1843.12 Q1285.37 1844.14 1283.84 1844.14 Q1282.25 1844.14 1281.19 1843.02 Q1280.18 1841.9 1280.18 1840.43 Z" fill="#000000" fill-rule="evenodd" fill-opacity="1" /><path clip-path="url(#clip890)" d="M1296.45 1883.3 L1296.45 1881.16 Q1300.15 1881.16 1301 1880.72 Q1301.85 1880.24 1301.85 1878 L1301.85 1859.35 Q1301.85 1856.77 1300.93 1856.13 Q1300.05 1855.48 1296.45 1855.48 L1296.45 1853.31 L1306.23 1852.56 L1306.23 1859.86 Q1309.49 1852.56 1316.52 1852.56 Q1324.67 1852.56 1325.79 1859.35 Q1326.98 1856.7 1329.46 1854.63 Q1331.98 1852.56 1335.88 1852.56 Q1341.11 1852.56 1343.18 1855.14 Q1344.71 1856.87 1345.02 1858.81 Q1345.32 1860.75 1345.32 1865.77 L1345.32 1879.06 Q1345.39 1880.52 1346.51 1880.86 Q1347.63 1881.16 1350.76 1881.16 L1350.76 1883.3 Q1343.66 1883.1 1342.98 1883.1 Q1342.44 1883.1 1335.1 1883.3 L1335.1 1881.16 Q1338.8 1881.16 1339.65 1880.72 Q1340.54 1880.24 1340.54 1878 L1340.54 1861.8 Q1340.54 1858.27 1339.45 1856.2 Q1338.36 1854.09 1335.37 1854.09 Q1331.77 1854.09 1328.88 1857.11 Q1326 1860.14 1326 1865.23 L1326 1878 Q1326 1880.24 1326.85 1880.72 Q1327.73 1881.16 1331.43 1881.16 L1331.43 1883.3 Q1324.33 1883.1 1323.62 1883.1 Q1323.08 1883.1 1315.77 1883.3 L1315.77 1881.16 Q1319.48 1881.16 1320.32 1880.72 Q1321.21 1880.24 1321.21 1878 L1321.21 1861.8 Q1321.21 1858.27 1320.12 1856.2 Q1319.03 1854.09 1316.04 1854.09 Q1312.44 1854.09 1309.56 1857.11 Q1306.67 1860.14 1306.67 1865.23 L1306.67 1878 Q1306.67 1880.24 1307.52 1880.72 Q1308.4 1881.16 1312.07 1881.16 L1312.07 1883.3 Q1304.97 1883.1 1304.29 1883.1 Q1303.75 1883.1 1296.45 1883.3 Z" fill="#000000" fill-rule="evenodd" fill-opacity="1" /><path clip-path="url(#clip890)" d="M1354.05 1867.98 Q1354.05 1861.43 1358.27 1856.77 Q1362.48 1852.12 1368.52 1852.12 Q1374.64 1852.12 1377.8 1856.09 Q1380.99 1860.07 1380.99 1865.77 Q1380.99 1866.83 1380.72 1867.03 Q1380.45 1867.23 1379.26 1867.23 L1359.83 1867.23 Q1359.83 1874.33 1361.93 1877.66 Q1364.86 1882.32 1369.78 1882.32 Q1370.46 1882.32 1371.28 1882.18 Q1372.09 1882.04 1373.75 1881.47 Q1375.42 1880.86 1376.88 1879.26 Q1378.34 1877.66 1379.19 1875.15 Q1379.39 1874.16 1380.07 1874.2 Q1380.99 1874.2 1380.99 1875.01 Q1380.99 1875.62 1380.31 1877.02 Q1379.67 1878.38 1378.41 1880.01 Q1377.15 1881.64 1374.71 1882.86 Q1372.29 1884.08 1369.37 1884.08 Q1363.26 1884.08 1358.64 1879.46 Q1354.05 1874.81 1354.05 1867.98 M1359.9 1865.77 L1376.4 1865.77 Q1376.4 1864.31 1376.13 1862.68 Q1375.89 1861.05 1375.15 1858.81 Q1374.43 1856.53 1372.74 1855.11 Q1371.04 1853.68 1368.52 1853.68 Q1367.4 1853.68 1366.18 1854.16 Q1364.99 1854.63 1363.53 1855.79 Q1362.07 1856.94 1361.05 1859.56 Q1360.03 1862.17 1359.9 1865.77 Z" fill="#000000" fill-rule="evenodd" fill-opacity="1" /><path clip-path="url(#clip890)" d="M1413.36 1900.69 L1413.36 1831.13 L1423.86 1831.13 L1423.86 1832.72 L1418.01 1832.72 L1418.01 1899.1 L1423.86 1899.1 L1423.86 1900.69 L1413.36 1900.69 Z" fill="#000000" fill-rule="evenodd" fill-opacity="1" /><path clip-path="url(#clip890)" d="M1427.69 1883.3 L1427.69 1881.16 Q1431.4 1881.16 1432.25 1880.72 Q1433.1 1880.24 1433.1 1878 L1433.1 1859.35 Q1433.1 1856.77 1432.18 1856.13 Q1431.3 1855.48 1427.69 1855.48 L1427.69 1853.31 L1437.48 1852.56 L1437.48 1859.86 Q1440.74 1852.56 1447.77 1852.56 Q1453 1852.56 1455.07 1855.14 Q1456.6 1856.87 1456.91 1858.81 Q1457.25 1860.75 1457.25 1865.77 L1457.25 1879.06 Q1457.31 1880.52 1458.43 1880.86 Q1459.56 1881.16 1462.68 1881.16 L1462.68 1883.3 Q1455.58 1883.1 1454.87 1883.1 Q1454.32 1883.1 1447.02 1883.3 L1447.02 1881.16 Q1450.72 1881.16 1451.57 1880.72 Q1452.46 1880.24 1452.46 1878 L1452.46 1861.8 Q1452.46 1858.27 1451.37 1856.2 Q1450.28 1854.09 1447.29 1854.09 Q1443.69 1854.09 1440.81 1857.11 Q1437.92 1860.14 1437.92 1865.23 L1437.92 1878 Q1437.92 1880.24 1438.77 1880.72 Q1439.65 1881.16 1443.32 1881.16 L1443.32 1883.3 Q1436.22 1883.1 1435.54 1883.1 Q1435 1883.1 1427.69 1883.3 Z" fill="#000000" fill-rule="evenodd" fill-opacity="1" /><path clip-path="url(#clip890)" d="M1466.35 1882.38 L1466.35 1873.21 Q1466.35 1872.43 1466.38 1872.16 Q1466.42 1871.89 1466.62 1871.68 Q1466.82 1871.48 1467.23 1871.48 Q1467.71 1871.48 1467.88 1871.68 Q1468.08 1871.89 1468.22 1872.67 Q1469.27 1877.46 1471.51 1880.01 Q1473.79 1882.52 1477.9 1882.52 Q1481.8 1882.52 1483.77 1880.79 Q1485.74 1879.06 1485.74 1876.2 Q1485.74 1871.11 1478.51 1869.82 Q1474.33 1868.97 1472.6 1868.42 Q1470.87 1867.85 1469.34 1866.59 Q1466.35 1864.14 1466.35 1860.68 Q1466.35 1857.21 1468.96 1854.67 Q1471.61 1852.12 1477.46 1852.12 Q1481.36 1852.12 1484.01 1854.09 Q1484.79 1853.48 1485.2 1852.97 Q1486.12 1852.12 1486.59 1852.12 Q1487.14 1852.12 1487.24 1852.49 Q1487.34 1852.83 1487.34 1853.82 L1487.34 1860.81 Q1487.34 1861.6 1487.31 1861.87 Q1487.27 1862.14 1487.07 1862.34 Q1486.87 1862.51 1486.42 1862.51 Q1485.64 1862.51 1485.61 1861.87 Q1485.07 1853.44 1477.46 1853.44 Q1473.35 1853.44 1471.51 1855.04 Q1469.68 1856.6 1469.68 1858.74 Q1469.68 1859.93 1470.22 1860.85 Q1470.8 1861.73 1471.51 1862.28 Q1472.26 1862.78 1473.62 1863.29 Q1474.98 1863.77 1475.79 1863.94 Q1476.64 1864.11 1478.24 1864.45 Q1483.81 1865.5 1486.15 1867.78 Q1489.07 1870.7 1489.07 1874.4 Q1489.07 1878.51 1486.29 1881.3 Q1483.5 1884.08 1477.9 1884.08 Q1473.38 1884.08 1470.22 1881.06 Q1469.81 1881.47 1469.51 1881.84 Q1469.2 1882.18 1469.07 1882.32 Q1468.96 1882.45 1468.93 1882.55 Q1468.9 1882.62 1468.83 1882.69 Q1467.44 1884.08 1467.1 1884.08 Q1466.55 1884.08 1466.45 1883.71 Q1466.35 1883.37 1466.35 1882.38 Z" fill="#000000" fill-rule="evenodd" fill-opacity="1" /><path clip-path="url(#clip890)" d="M1492.88 1899.1 L1498.72 1899.1 L1498.72 1832.72 L1492.88 1832.72 L1492.88 1831.13 L1503.37 1831.13 L1503.37 1900.69 L1492.88 1900.69 L1492.88 1899.1 Z" fill="#000000" fill-rule="evenodd" fill-opacity="1" /><polyline clip-path="url(#clip892)" style="stroke:#000000; stroke-linecap:round; stroke-linejoin:round; stroke-width:2; stroke-opacity:0.1; fill:none" points="89.8721,1488.57 2640.76,1488.57 "/>
<polyline clip-path="url(#clip892)" style="stroke:#000000; stroke-linecap:round; stroke-linejoin:round; stroke-width:2; stroke-opacity:0.1; fill:none" points="89.8721,1140.17 2640.76,1140.17 "/>
<polyline clip-path="url(#clip892)" style="stroke:#000000; stroke-linecap:round; stroke-linejoin:round; stroke-width:2; stroke-opacity:0.1; fill:none" points="89.8721,791.777 2640.76,791.777 "/>
<polyline clip-path="url(#clip892)" style="stroke:#000000; stroke-linecap:round; stroke-linejoin:round; stroke-width:2; stroke-opacity:0.1; fill:none" points="89.8721,443.381 2640.76,443.381 "/>
<polyline clip-path="url(#clip892)" style="stroke:#000000; stroke-linecap:round; stroke-linejoin:round; stroke-width:2; stroke-opacity:0.1; fill:none" points="89.8721,94.9858 2640.76,94.9858 "/>
<polyline clip-path="url(#clip892)" style="stroke:#000000; stroke-linecap:round; stroke-linejoin:round; stroke-width:2; stroke-opacity:0.05; fill:none" points="89.8721,1697.61 2640.76,1697.61 "/>
<polyline clip-path="url(#clip892)" style="stroke:#000000; stroke-linecap:round; stroke-linejoin:round; stroke-width:2; stroke-opacity:0.05; fill:none" points="89.8721,1627.93 2640.76,1627.93 "/>
<polyline clip-path="url(#clip892)" style="stroke:#000000; stroke-linecap:round; stroke-linejoin:round; stroke-width:2; stroke-opacity:0.05; fill:none" points="89.8721,1558.25 2640.76,1558.25 "/>
<polyline clip-path="url(#clip892)" style="stroke:#000000; stroke-linecap:round; stroke-linejoin:round; stroke-width:2; stroke-opacity:0.05; fill:none" points="89.8721,1418.89 2640.76,1418.89 "/>
<polyline clip-path="url(#clip892)" style="stroke:#000000; stroke-linecap:round; stroke-linejoin:round; stroke-width:2; stroke-opacity:0.05; fill:none" points="89.8721,1349.21 2640.76,1349.21 "/>
<polyline clip-path="url(#clip892)" style="stroke:#000000; stroke-linecap:round; stroke-linejoin:round; stroke-width:2; stroke-opacity:0.05; fill:none" points="89.8721,1279.53 2640.76,1279.53 "/>
<polyline clip-path="url(#clip892)" style="stroke:#000000; stroke-linecap:round; stroke-linejoin:round; stroke-width:2; stroke-opacity:0.05; fill:none" points="89.8721,1209.85 2640.76,1209.85 "/>
<polyline clip-path="url(#clip892)" style="stroke:#000000; stroke-linecap:round; stroke-linejoin:round; stroke-width:2; stroke-opacity:0.05; fill:none" points="89.8721,1070.49 2640.76,1070.49 "/>
<polyline clip-path="url(#clip892)" style="stroke:#000000; stroke-linecap:round; stroke-linejoin:round; stroke-width:2; stroke-opacity:0.05; fill:none" points="89.8721,1000.81 2640.76,1000.81 "/>
<polyline clip-path="url(#clip892)" style="stroke:#000000; stroke-linecap:round; stroke-linejoin:round; stroke-width:2; stroke-opacity:0.05; fill:none" points="89.8721,931.135 2640.76,931.135 "/>
<polyline clip-path="url(#clip892)" style="stroke:#000000; stroke-linecap:round; stroke-linejoin:round; stroke-width:2; stroke-opacity:0.05; fill:none" points="89.8721,861.456 2640.76,861.456 "/>
<polyline clip-path="url(#clip892)" style="stroke:#000000; stroke-linecap:round; stroke-linejoin:round; stroke-width:2; stroke-opacity:0.05; fill:none" points="89.8721,722.098 2640.76,722.098 "/>
<polyline clip-path="url(#clip892)" style="stroke:#000000; stroke-linecap:round; stroke-linejoin:round; stroke-width:2; stroke-opacity:0.05; fill:none" points="89.8721,652.419 2640.76,652.419 "/>
<polyline clip-path="url(#clip892)" style="stroke:#000000; stroke-linecap:round; stroke-linejoin:round; stroke-width:2; stroke-opacity:0.05; fill:none" points="89.8721,582.74 2640.76,582.74 "/>
<polyline clip-path="url(#clip892)" style="stroke:#000000; stroke-linecap:round; stroke-linejoin:round; stroke-width:2; stroke-opacity:0.05; fill:none" points="89.8721,513.061 2640.76,513.061 "/>
<polyline clip-path="url(#clip892)" style="stroke:#000000; stroke-linecap:round; stroke-linejoin:round; stroke-width:2; stroke-opacity:0.05; fill:none" points="89.8721,373.702 2640.76,373.702 "/>
<polyline clip-path="url(#clip892)" style="stroke:#000000; stroke-linecap:round; stroke-linejoin:round; stroke-width:2; stroke-opacity:0.05; fill:none" points="89.8721,304.023 2640.76,304.023 "/>
<polyline clip-path="url(#clip892)" style="stroke:#000000; stroke-linecap:round; stroke-linejoin:round; stroke-width:2; stroke-opacity:0.05; fill:none" points="89.8721,234.344 2640.76,234.344 "/>
<polyline clip-path="url(#clip892)" style="stroke:#000000; stroke-linecap:round; stroke-linejoin:round; stroke-width:2; stroke-opacity:0.05; fill:none" points="89.8721,164.665 2640.76,164.665 "/>
<polyline clip-path="url(#clip890)" style="stroke:#000000; stroke-linecap:round; stroke-linejoin:round; stroke-width:4; stroke-opacity:1; fill:none" points="89.8721,1734.12 89.8721,47.2441 "/>
<polyline clip-path="url(#clip890)" style="stroke:#000000; stroke-linecap:round; stroke-linejoin:round; stroke-width:4; stroke-opacity:1; fill:none" points="89.8721,1488.57 108.77,1488.57 "/>
<polyline clip-path="url(#clip890)" style="stroke:#000000; stroke-linecap:round; stroke-linejoin:round; stroke-width:4; stroke-opacity:1; fill:none" points="89.8721,1140.17 108.77,1140.17 "/>
<polyline clip-path="url(#clip890)" style="stroke:#000000; stroke-linecap:round; stroke-linejoin:round; stroke-width:4; stroke-opacity:1; fill:none" points="89.8721,791.777 108.77,791.777 "/>
<polyline clip-path="url(#clip890)" style="stroke:#000000; stroke-linecap:round; stroke-linejoin:round; stroke-width:4; stroke-opacity:1; fill:none" points="89.8721,443.381 108.77,443.381 "/>
<polyline clip-path="url(#clip890)" style="stroke:#000000; stroke-linecap:round; stroke-linejoin:round; stroke-width:4; stroke-opacity:1; fill:none" points="89.8721,94.9858 108.77,94.9858 "/>
<polyline clip-path="url(#clip890)" style="stroke:#000000; stroke-linecap:round; stroke-linejoin:round; stroke-width:4; stroke-opacity:1; fill:none" points="89.8721,1697.61 99.3209,1697.61 "/>
<polyline clip-path="url(#clip890)" style="stroke:#000000; stroke-linecap:round; stroke-linejoin:round; stroke-width:4; stroke-opacity:1; fill:none" points="89.8721,1627.93 99.3209,1627.93 "/>
<polyline clip-path="url(#clip890)" style="stroke:#000000; stroke-linecap:round; stroke-linejoin:round; stroke-width:4; stroke-opacity:1; fill:none" points="89.8721,1558.25 99.3209,1558.25 "/>
<polyline clip-path="url(#clip890)" style="stroke:#000000; stroke-linecap:round; stroke-linejoin:round; stroke-width:4; stroke-opacity:1; fill:none" points="89.8721,1418.89 99.3209,1418.89 "/>
<polyline clip-path="url(#clip890)" style="stroke:#000000; stroke-linecap:round; stroke-linejoin:round; stroke-width:4; stroke-opacity:1; fill:none" points="89.8721,1349.21 99.3209,1349.21 "/>
<polyline clip-path="url(#clip890)" style="stroke:#000000; stroke-linecap:round; stroke-linejoin:round; stroke-width:4; stroke-opacity:1; fill:none" points="89.8721,1279.53 99.3209,1279.53 "/>
<polyline clip-path="url(#clip890)" style="stroke:#000000; stroke-linecap:round; stroke-linejoin:round; stroke-width:4; stroke-opacity:1; fill:none" points="89.8721,1209.85 99.3209,1209.85 "/>
<polyline clip-path="url(#clip890)" style="stroke:#000000; stroke-linecap:round; stroke-linejoin:round; stroke-width:4; stroke-opacity:1; fill:none" points="89.8721,1070.49 99.3209,1070.49 "/>
<polyline clip-path="url(#clip890)" style="stroke:#000000; stroke-linecap:round; stroke-linejoin:round; stroke-width:4; stroke-opacity:1; fill:none" points="89.8721,1000.81 99.3209,1000.81 "/>
<polyline clip-path="url(#clip890)" style="stroke:#000000; stroke-linecap:round; stroke-linejoin:round; stroke-width:4; stroke-opacity:1; fill:none" points="89.8721,931.135 99.3209,931.135 "/>
<polyline clip-path="url(#clip890)" style="stroke:#000000; stroke-linecap:round; stroke-linejoin:round; stroke-width:4; stroke-opacity:1; fill:none" points="89.8721,861.456 99.3209,861.456 "/>
<polyline clip-path="url(#clip890)" style="stroke:#000000; stroke-linecap:round; stroke-linejoin:round; stroke-width:4; stroke-opacity:1; fill:none" points="89.8721,722.098 99.3209,722.098 "/>
<polyline clip-path="url(#clip890)" style="stroke:#000000; stroke-linecap:round; stroke-linejoin:round; stroke-width:4; stroke-opacity:1; fill:none" points="89.8721,652.419 99.3209,652.419 "/>
<polyline clip-path="url(#clip890)" style="stroke:#000000; stroke-linecap:round; stroke-linejoin:round; stroke-width:4; stroke-opacity:1; fill:none" points="89.8721,582.74 99.3209,582.74 "/>
<polyline clip-path="url(#clip890)" style="stroke:#000000; stroke-linecap:round; stroke-linejoin:round; stroke-width:4; stroke-opacity:1; fill:none" points="89.8721,513.061 99.3209,513.061 "/>
<polyline clip-path="url(#clip890)" style="stroke:#000000; stroke-linecap:round; stroke-linejoin:round; stroke-width:4; stroke-opacity:1; fill:none" points="89.8721,373.702 99.3209,373.702 "/>
<polyline clip-path="url(#clip890)" style="stroke:#000000; stroke-linecap:round; stroke-linejoin:round; stroke-width:4; stroke-opacity:1; fill:none" points="89.8721,304.023 99.3209,304.023 "/>
<polyline clip-path="url(#clip890)" style="stroke:#000000; stroke-linecap:round; stroke-linejoin:round; stroke-width:4; stroke-opacity:1; fill:none" points="89.8721,234.344 99.3209,234.344 "/>
<polyline clip-path="url(#clip890)" style="stroke:#000000; stroke-linecap:round; stroke-linejoin:round; stroke-width:4; stroke-opacity:1; fill:none" points="89.8721,164.665 99.3209,164.665 "/>
<polyline clip-path="url(#clip892)" style="stroke:#4c4cd7; stroke-linecap:round; stroke-linejoin:round; stroke-width:4; stroke-opacity:1; fill:none" points="162.067,1500.96 164.476,1500.98 166.885,1500.98 169.294,1500.97 171.703,1500.94 174.111,1500.89 176.52,1500.82 178.929,1500.73 181.338,1500.63 183.747,1500.51 186.156,1500.36 188.565,1500.2 190.974,1500.02 193.383,1499.83 195.792,1499.61 198.2,1499.38 200.609,1499.12 203.018,1498.85 205.427,1498.57 207.836,1498.26 210.245,1497.94 212.654,1497.6 215.063,1497.24 217.472,1496.87 219.881,1496.49 222.29,1496.08 224.698,1495.66 227.107,1495.23 229.516,1494.78 231.925,1494.32 234.334,1493.85 236.743,1493.36 239.152,1492.86 241.561,1492.35 243.97,1491.83 246.379,1491.3 248.787,1490.76 251.196,1490.21 253.605,1489.65 256.014,1489.08 258.423,1488.51 260.832,1487.93 263.241,1487.34 265.65,1486.75 268.059,1486.15 270.468,1485.55 272.876,1484.95 275.285,1484.35 277.694,1483.75 280.103,1483.14 282.512,1482.54 284.921,1481.94 287.33,1481.34 289.739,1480.74 292.148,1480.15 294.557,1479.56 296.966,1478.98 299.374,1478.41 301.783,1477.84 304.192,1477.28 306.601,1476.73 309.01,1476.19 311.419,1475.66 313.828,1475.14 316.237,1474.63 318.646,1474.14 321.055,1473.66 323.463,1473.19 325.872,1472.74 328.281,1472.31 330.69,1471.89 333.099,1471.49 335.508,1471.11 337.917,1470.75 340.326,1470.4 342.735,1470.08 345.144,1469.78 347.552,1469.5 349.961,1469.24 352.37,1469.01 354.779,1468.79 357.188,1468.6 359.597,1468.44 362.006,1468.3 364.415,1468.18 366.824,1468.09 369.233,1468.03 371.642,1467.99 374.05,1467.97 376.459,1467.99 378.868,1468.02 381.277,1468.09 383.686,1468.18 386.095,1468.3 388.504,1468.45 390.913,1468.62 393.322,1468.82 395.731,1469.05 398.139,1469.31 400.548,1469.59 402.957,1469.89 405.366,1470.23 407.775,1470.59 410.184,1470.97 412.593,1471.39 415.002,1471.82 417.411,1472.28 419.82,1472.77 422.228,1473.28 424.637,1473.81 427.046,1474.37 429.455,1474.94 431.864,1475.54 434.273,1476.16 436.682,1476.8 439.091,1477.46 441.5,1478.14 443.909,1478.84 446.318,1479.55 448.726,1480.28 451.135,1481.03 453.544,1481.79 455.953,1482.56 458.362,1483.35 460.771,1484.15 463.18,1484.95 465.589,1485.77 467.998,1486.59 470.407,1487.43 472.815,1488.27 475.224,1489.11 477.633,1489.96 480.042,1490.81 482.451,1491.66 484.86,1492.51 487.269,1493.36 489.678,1494.2 492.087,1495.05 494.496,1495.89 496.904,1496.72 499.313,1497.54 501.722,1498.36 504.131,1499.17 506.54,1499.96 508.949,1500.74 511.358,1501.51 513.767,1502.27 516.176,1503 518.585,1503.72 520.994,1504.42 523.402,1505.1 525.811,1505.76 528.22,1506.4 530.629,1507.01 533.038,1507.6 535.447,1508.16 537.856,1508.69 540.265,1509.2 542.674,1509.67 545.083,1510.12 547.491,1510.53 549.9,1510.91 552.309,1511.26 554.718,1511.58 557.127,1511.86 559.536,1512.1 561.945,1512.3 564.354,1512.47 566.763,1512.6 569.172,1512.69 571.58,1512.74 573.989,1512.75 576.398,1512.72 578.807,1512.65 581.216,1512.54 583.625,1512.38 586.034,1512.19 588.443,1511.95 590.852,1511.66 593.261,1511.34 595.669,1510.97 598.078,1510.56 600.487,1510.1 602.896,1509.6 605.305,1509.06 607.714,1508.48 610.123,1507.85 612.532,1507.18 614.941,1506.47 617.35,1505.72 619.759,1504.93 622.167,1504.1 624.576,1503.23 626.985,1502.32 629.394,1501.37 631.803,1500.39 634.212,1499.37 636.621,1498.31 639.03,1497.22 641.439,1496.1 643.848,1494.94 646.256,1493.76 648.665,1492.54 651.074,1491.3 653.483,1490.03 655.892,1488.73 658.301,1487.42 660.71,1486.08 663.119,1484.71 665.528,1483.34 667.937,1481.94 670.345,1480.53 672.754,1479.1 675.163,1477.67 677.572,1476.22 679.981,1474.77 682.39,1473.31 684.799,1471.84 687.208,1470.38 689.617,1468.92 692.026,1467.46 694.435,1466 696.843,1464.55 699.252,1463.11 701.661,1461.69 704.07,1460.28 706.479,1458.88 708.888,1457.5 711.297,1456.15 713.706,1454.82 716.115,1453.51 718.524,1452.23 720.932,1450.99 723.341,1449.77 725.75,1448.59 728.159,1447.45 730.568,1446.35 732.977,1445.29 735.386,1444.28 737.795,1443.32 740.204,1442.4 742.613,1441.54 745.021,1440.73 747.43,1439.97 749.839,1439.28 752.248,1438.65 754.657,1438.08 757.066,1437.57 759.475,1437.13 761.884,1436.76 764.293,1436.46 766.702,1436.24 769.111,1436.08 771.519,1436.01 773.928,1436.01 776.337,1436.1 778.746,1436.26 781.155,1436.51 783.564,1436.84 785.973,1437.26 788.382,1437.76 790.791,1438.35 793.2,1439.04 795.608,1439.81 798.017,1440.67 800.426,1441.63 802.835,1442.67 805.244,1443.81 807.653,1445.05 810.062,1446.38 812.471,1447.8 814.88,1449.32 817.289,1450.93 819.697,1452.64 822.106,1454.44 824.515,1456.34 826.924,1458.33 829.333,1460.42 831.742,1462.59 834.151,1464.87 836.56,1467.23 838.969,1469.68 841.378,1472.22 843.787,1474.85 846.195,1477.57 848.604,1480.38 851.013,1483.26 853.422,1486.23 855.831,1489.28 858.24,1492.41 860.649,1495.62 863.058,1498.9 865.467,1502.25 867.876,1505.67 870.284,1509.16 872.693,1512.72 875.102,1516.33 877.511,1520 879.92,1523.73 882.329,1527.51 884.738,1531.34 887.147,1535.22 889.556,1539.14 891.965,1543.1 894.373,1547.09 896.782,1551.11 899.191,1555.16 901.6,1559.23 904.009,1563.32 906.418,1567.43 908.827,1571.54 911.236,1575.66 913.645,1579.79 916.054,1583.91 918.463,1588.02 920.871,1592.11 923.28,1596.19 925.689,1600.25 928.098,1604.28 930.507,1608.28 932.916,1612.23 935.325,1616.15 937.734,1620.01 940.143,1623.83 942.552,1627.58 944.96,1631.27 947.369,1634.88 949.778,1638.43 952.187,1641.89 954.596,1645.26 957.005,1648.54 959.414,1651.73 961.823,1654.81 964.232,1657.78 966.641,1660.64 969.049,1663.37 971.458,1665.99 973.867,1668.47 976.276,1670.81 978.685,1673.01 981.094,1675.06 983.503,1676.96 985.912,1678.71 988.321,1680.28 990.73,1681.69 993.138,1682.93 995.547,1683.98 997.956,1684.85 1000.37,1685.53 1002.77,1686.01 1005.18,1686.3 1007.59,1686.38 1010,1686.25 1012.41,1685.9 1014.82,1685.34 1017.23,1684.55 1019.64,1683.54 1022.05,1682.3 1024.45,1680.82 1026.86,1679.1 1029.27,1677.14 1031.68,1674.93 1034.09,1672.47 1036.5,1669.76 1038.91,1666.79 1041.32,1663.56 1043.73,1660.07 1046.13,1656.31 1048.54,1652.28 1050.95,1647.98 1053.36,1643.41 1055.77,1638.56 1058.18,1633.44 1060.59,1628.04 1063,1622.36 1065.41,1616.39 1067.81,1610.15 1070.22,1603.62 1072.63,1596.8 1075.04,1589.7 1077.45,1582.32 1079.86,1574.65 1082.27,1566.69 1084.68,1558.45 1087.09,1549.93 1089.49,1541.12 1091.9,1532.02 1094.31,1522.65 1096.72,1512.99 1099.13,1503.06 1101.54,1492.85 1103.95,1482.36 1106.36,1471.6 1108.77,1460.57 1111.17,1449.27 1113.58,1437.71 1115.99,1425.88 1118.4,1413.79 1120.81,1401.45 1123.22,1388.86 1125.63,1376.02 1128.04,1362.94 1130.45,1349.61 1132.85,1336.06 1135.26,1322.27 1137.67,1308.25 1140.08,1294.02 1142.49,1279.57 1144.9,1264.92 1147.31,1250.06 1149.72,1235 1152.13,1219.75 1154.54,1204.32 1156.94,1188.71 1159.35,1172.93 1161.76,1156.98 1164.17,1140.88 1166.58,1124.62 1168.99,1108.22 1171.4,1091.69 1173.81,1075.03 1176.22,1058.24 1178.62,1041.35 1181.03,1024.35 1183.44,1007.25 1185.85,990.068 1188.26,972.805 1190.67,955.472 1193.08,938.076 1195.49,920.626 1197.9,903.132 1200.3,885.603 1202.71,868.047 1205.12,850.473 1207.53,832.891 1209.94,815.311 1212.35,797.74 1214.76,780.189 1217.17,762.668 1219.58,745.185 1221.98,727.749 1224.39,710.372 1226.8,693.061 1229.21,675.827 1231.62,658.679 1234.03,641.627 1236.44,624.679 1238.85,607.847 1241.26,591.138 1243.66,574.563 1246.07,558.131 1248.48,541.852 1250.89,525.734 1253.3,509.787 1255.71,494.02 1258.12,478.443 1260.53,463.063 1262.94,447.891 1265.34,432.935 1267.75,418.204 1270.16,403.707 1272.57,389.451 1274.98,375.446 1277.39,361.7 1279.8,348.221 1282.21,335.016 1284.62,322.095 1287.02,309.464 1289.43,297.131 1291.84,285.103 1294.25,273.388 1296.66,261.994 1299.07,250.925 1301.48,240.191 1303.89,229.796 1306.3,219.747 1308.7,210.051 1311.11,200.712 1313.52,191.738 1315.93,183.133 1318.34,174.903 1320.75,167.052 1323.16,159.586 1325.57,152.509 1327.98,145.826 1330.38,139.54 1332.79,133.655 1335.2,128.175 1337.61,123.104 1340.02,118.444 1342.43,114.199 1344.84,110.371 1347.25,106.962 1349.66,103.974 1352.07,101.41 1354.47,99.2708 1356.88,97.5579 1359.29,96.2722 1361.7,95.4147 1364.11,94.9858 1366.52,94.9858 1368.93,95.4147 1371.34,96.2722 1373.75,97.5579 1376.15,99.2708 1378.56,101.41 1380.97,103.974 1383.38,106.962 1385.79,110.371 1388.2,114.199 1390.61,118.444 1393.02,123.104 1395.43,128.175 1397.83,133.655 1400.24,139.54 1402.65,145.826 1405.06,152.509 1407.47,159.586 1409.88,167.052 1412.29,174.903 1414.7,183.133 1417.11,191.738 1419.51,200.712 1421.92,210.051 1424.33,219.747 1426.74,229.796 1429.15,240.191 1431.56,250.925 1433.97,261.994 1436.38,273.388 1438.79,285.103 1441.19,297.131 1443.6,309.464 1446.01,322.095 1448.42,335.016 1450.83,348.221 1453.24,361.7 1455.65,375.446 1458.06,389.451 1460.47,403.707 1462.87,418.204 1465.28,432.935 1467.69,447.891 1470.1,463.063 1472.51,478.443 1474.92,494.02 1477.33,509.787 1479.74,525.734 1482.15,541.852 1484.55,558.131 1486.96,574.563 1489.37,591.138 1491.78,607.847 1494.19,624.679 1496.6,641.627 1499.01,658.679 1501.42,675.827 1503.83,693.061 1506.23,710.372 1508.64,727.749 1511.05,745.185 1513.46,762.668 1515.87,780.189 1518.28,797.74 1520.69,815.311 1523.1,832.891 1525.51,850.473 1527.91,868.047 1530.32,885.603 1532.73,903.132 1535.14,920.626 1537.55,938.076 1539.96,955.472 1542.37,972.805 1544.78,990.068 1547.19,1007.25 1549.6,1024.35 1552,1041.35 1554.41,1058.24 1556.82,1075.03 1559.23,1091.69 1561.64,1108.22 1564.05,1124.62 1566.46,1140.88 1568.87,1156.98 1571.28,1172.93 1573.68,1188.71 1576.09,1204.32 1578.5,1219.75 1580.91,1235 1583.32,1250.06 1585.73,1264.92 1588.14,1279.57 1590.55,1294.02 1592.96,1308.25 1595.36,1322.27 1597.77,1336.06 1600.18,1349.61 1602.59,1362.94 1605,1376.02 1607.41,1388.86 1609.82,1401.45 1612.23,1413.79 1614.64,1425.88 1617.04,1437.71 1619.45,1449.27 1621.86,1460.57 1624.27,1471.6 1626.68,1482.36 1629.09,1492.85 1631.5,1503.06 1633.91,1512.99 1636.32,1522.65 1638.72,1532.02 1641.13,1541.12 1643.54,1549.93 1645.95,1558.45 1648.36,1566.69 1650.77,1574.65 1653.18,1582.32 1655.59,1589.7 1658,1596.8 1660.4,1603.62 1662.81,1610.15 1665.22,1616.39 1667.63,1622.36 1670.04,1628.04 1672.45,1633.44 1674.86,1638.56 1677.27,1643.41 1679.68,1647.98 1682.08,1652.28 1684.49,1656.31 1686.9,1660.07 1689.31,1663.56 1691.72,1666.79 1694.13,1669.76 1696.54,1672.47 1698.95,1674.93 1701.36,1677.14 1703.76,1679.1 1706.17,1680.82 1708.58,1682.3 1710.99,1683.54 1713.4,1684.55 1715.81,1685.34 1718.22,1685.9 1720.63,1686.25 1723.04,1686.38 1725.45,1686.3 1727.85,1686.01 1730.26,1685.53 1732.67,1684.85 1735.08,1683.98 1737.49,1682.93 1739.9,1681.69 1742.31,1680.28 1744.72,1678.71 1747.13,1676.96 1749.53,1675.06 1751.94,1673.01 1754.35,1670.81 1756.76,1668.47 1759.17,1665.99 1761.58,1663.37 1763.99,1660.64 1766.4,1657.78 1768.81,1654.81 1771.21,1651.73 1773.62,1648.54 1776.03,1645.26 1778.44,1641.89 1780.85,1638.43 1783.26,1634.88 1785.67,1631.27 1788.08,1627.58 1790.49,1623.83 1792.89,1620.01 1795.3,1616.15 1797.71,1612.23 1800.12,1608.28 1802.53,1604.28 1804.94,1600.25 1807.35,1596.19 1809.76,1592.11 1812.17,1588.02 1814.57,1583.91 1816.98,1579.79 1819.39,1575.66 1821.8,1571.54 1824.21,1567.43 1826.62,1563.32 1829.03,1559.23 1831.44,1555.16 1833.85,1551.11 1836.25,1547.09 1838.66,1543.1 1841.07,1539.14 1843.48,1535.22 1845.89,1531.34 1848.3,1527.51 1850.71,1523.73 1853.12,1520 1855.53,1516.33 1857.93,1512.72 1860.34,1509.16 1862.75,1505.67 1865.16,1502.25 1867.57,1498.9 1869.98,1495.62 1872.39,1492.41 1874.8,1489.28 1877.21,1486.23 1879.61,1483.26 1882.02,1480.38 1884.43,1477.57 1886.84,1474.85 1889.25,1472.22 1891.66,1469.68 1894.07,1467.23 1896.48,1464.87 1898.89,1462.59 1901.29,1460.42 1903.7,1458.33 1906.11,1456.34 1908.52,1454.44 1910.93,1452.64 1913.34,1450.93 1915.75,1449.32 1918.16,1447.8 1920.57,1446.38 1922.98,1445.05 1925.38,1443.81 1927.79,1442.67 1930.2,1441.63 1932.61,1440.67 1935.02,1439.81 1937.43,1439.04 1939.84,1438.35 1942.25,1437.76 1944.66,1437.26 1947.06,1436.84 1949.47,1436.51 1951.88,1436.26 1954.29,1436.1 1956.7,1436.01 1959.11,1436.01 1961.52,1436.08 1963.93,1436.24 1966.34,1436.46 1968.74,1436.76 1971.15,1437.13 1973.56,1437.57 1975.97,1438.08 1978.38,1438.65 1980.79,1439.28 1983.2,1439.97 1985.61,1440.73 1988.02,1441.54 1990.42,1442.4 1992.83,1443.32 1995.24,1444.28 1997.65,1445.29 2000.06,1446.35 2002.47,1447.45 2004.88,1448.59 2007.29,1449.77 2009.7,1450.99 2012.1,1452.23 2014.51,1453.51 2016.92,1454.82 2019.33,1456.15 2021.74,1457.5 2024.15,1458.88 2026.56,1460.28 2028.97,1461.69 2031.38,1463.11 2033.78,1464.55 2036.19,1466 2038.6,1467.46 2041.01,1468.92 2043.42,1470.38 2045.83,1471.84 2048.24,1473.31 2050.65,1474.77 2053.06,1476.22 2055.46,1477.67 2057.87,1479.1 2060.28,1480.53 2062.69,1481.94 2065.1,1483.34 2067.51,1484.71 2069.92,1486.08 2072.33,1487.42 2074.74,1488.73 2077.14,1490.03 2079.55,1491.3 2081.96,1492.54 2084.37,1493.76 2086.78,1494.94 2089.19,1496.1 2091.6,1497.22 2094.01,1498.31 2096.42,1499.37 2098.82,1500.39 2101.23,1501.37 2103.64,1502.32 2106.05,1503.23 2108.46,1504.1 2110.87,1504.93 2113.28,1505.72 2115.69,1506.47 2118.1,1507.18 2120.51,1507.85 2122.91,1508.48 2125.32,1509.06 2127.73,1509.6 2130.14,1510.1 2132.55,1510.56 2134.96,1510.97 2137.37,1511.34 2139.78,1511.66 2142.19,1511.95 2144.59,1512.19 2147,1512.38 2149.41,1512.54 2151.82,1512.65 2154.23,1512.72 2156.64,1512.75 2159.05,1512.74 2161.46,1512.69 2163.87,1512.6 2166.27,1512.47 2168.68,1512.3 2171.09,1512.1 2173.5,1511.86 2175.91,1511.58 2178.32,1511.26 2180.73,1510.91 2183.14,1510.53 2185.55,1510.12 2187.95,1509.67 2190.36,1509.2 2192.77,1508.69 2195.18,1508.16 2197.59,1507.6 2200,1507.01 2202.41,1506.4 2204.82,1505.76 2207.23,1505.1 2209.63,1504.42 2212.04,1503.72 2214.45,1503 2216.86,1502.27 2219.27,1501.51 2221.68,1500.74 2224.09,1499.96 2226.5,1499.17 2228.91,1498.36 2231.31,1497.54 2233.72,1496.72 2236.13,1495.89 2238.54,1495.05 2240.95,1494.2 2243.36,1493.36 2245.77,1492.51 2248.18,1491.66 2250.59,1490.81 2252.99,1489.96 2255.4,1489.11 2257.81,1488.27 2260.22,1487.43 2262.63,1486.59 2265.04,1485.77 2267.45,1484.95 2269.86,1484.15 2272.27,1483.35 2274.67,1482.56 2277.08,1481.79 2279.49,1481.03 2281.9,1480.28 2284.31,1479.55 2286.72,1478.84 2289.13,1478.14 2291.54,1477.46 2293.95,1476.8 2296.36,1476.16 2298.76,1475.54 2301.17,1474.94 2303.58,1474.37 2305.99,1473.81 2308.4,1473.28 2310.81,1472.77 2313.22,1472.28 2315.63,1471.82 2318.04,1471.39 2320.44,1470.97 2322.85,1470.59 2325.26,1470.23 2327.67,1469.89 2330.08,1469.59 2332.49,1469.31 2334.9,1469.05 2337.31,1468.82 2339.72,1468.62 2342.12,1468.45 2344.53,1468.3 2346.94,1468.18 2349.35,1468.09 2351.76,1468.02 2354.17,1467.99 2356.58,1467.97 2358.99,1467.99 2361.4,1468.03 2363.8,1468.09 2366.21,1468.18 2368.62,1468.3 2371.03,1468.44 2373.44,1468.6 2375.85,1468.79 2378.26,1469.01 2380.67,1469.24 2383.08,1469.5 2385.48,1469.78 2387.89,1470.08 2390.3,1470.4 2392.71,1470.75 2395.12,1471.11 2397.53,1471.49 2399.94,1471.89 2402.35,1472.31 2404.76,1472.74 2407.16,1473.19 2409.57,1473.66 2411.98,1474.14 2414.39,1474.63 2416.8,1475.14 2419.21,1475.66 2421.62,1476.19 2424.03,1476.73 2426.44,1477.28 2428.84,1477.84 2431.25,1478.41 2433.66,1478.98 2436.07,1479.56 2438.48,1480.15 2440.89,1480.74 2443.3,1481.34 2445.71,1481.94 2448.12,1482.54 2450.52,1483.14 2452.93,1483.75 2455.34,1484.35 2457.75,1484.95 2460.16,1485.55 2462.57,1486.15 2464.98,1486.75 2467.39,1487.34 2469.8,1487.93 2472.2,1488.51 2474.61,1489.08 2477.02,1489.65 2479.43,1490.21 2481.84,1490.76 2484.25,1491.3 2486.66,1491.83 2489.07,1492.35 2491.48,1492.86 2493.89,1493.36 2496.29,1493.85 2498.7,1494.32 2501.11,1494.78 2503.52,1495.23 2505.93,1495.66 2508.34,1496.08 2510.75,1496.49 2513.16,1496.87 2515.57,1497.24 2517.97,1497.6 2520.38,1497.94 2522.79,1498.26 2525.2,1498.57 2527.61,1498.85 2530.02,1499.12 2532.43,1499.38 2534.84,1499.61 2537.25,1499.83 2539.65,1500.02 2542.06,1500.2 2544.47,1500.36 2546.88,1500.51 2549.29,1500.63 2551.7,1500.73 2554.11,1500.82 2556.52,1500.89 2558.93,1500.94 2561.33,1500.97 2563.74,1500.98 2566.15,1500.98 2568.56,1500.96 "/>
</svg>
