<?xml version="1.0" encoding="utf-8"?>
<svg xmlns="http://www.w3.org/2000/svg" xmlns:xlink="http://www.w3.org/1999/xlink" width="672" height="480" viewBox="0 0 2688 1920">
<defs>
  <clipPath id="clip350">
    <rect x="0" y="0" width="2688" height="1920"/>
  </clipPath>
</defs>
<path clip-path="url(#clip350)" d="M0 1920 L2688 1920 L2688 0 L0 0  Z" fill="#ffffff" fill-rule="evenodd" fill-opacity="1"/>
<defs>
  <clipPath id="clip351">
    <rect x="537" y="0" width="1883" height="1883"/>
  </clipPath>
</defs>
<path clip-path="url(#clip350)" d="M156.534 1734.12 L2640.76 1734.12 L2640.76 47.2441 L156.534 47.2441  Z" fill="#ffffff" fill-rule="evenodd" fill-opacity="1"/>
<defs>
  <clipPath id="clip352">
    <rect x="156" y="47" width="2485" height="1688"/>
  </clipPath>
</defs>
<polyline clip-path="url(#clip352)" style="stroke:#000000; stroke-linecap:round; stroke-linejoin:round; stroke-width:2; stroke-opacity:0.1; fill:none" points="519.793,1734.12 519.793,47.2441 "/>
<polyline clip-path="url(#clip352)" style="stroke:#000000; stroke-linecap:round; stroke-linejoin:round; stroke-width:2; stroke-opacity:0.1; fill:none" points="959.219,1734.12 959.219,47.2441 "/>
<polyline clip-path="url(#clip352)" style="stroke:#000000; stroke-linecap:round; stroke-linejoin:round; stroke-width:2; stroke-opacity:0.1; fill:none" points="1398.65,1734.12 1398.65,47.2441 "/>
<polyline clip-path="url(#clip352)" style="stroke:#000000; stroke-linecap:round; stroke-linejoin:round; stroke-width:2; stroke-opacity:0.1; fill:none" points="1838.07,1734.12 1838.07,47.2441 "/>
<polyline clip-path="url(#clip352)" style="stroke:#000000; stroke-linecap:round; stroke-linejoin:round; stroke-width:2; stroke-opacity:0.1; fill:none" points="2277.5,1734.12 2277.5,47.2441 "/>
<polyline clip-path="url(#clip352)" style="stroke:#000000; stroke-linecap:round; stroke-linejoin:round; stroke-width:2; stroke-opacity:0.05; fill:none" points="168.252,1734.12 168.252,47.2441 "/>
<polyline clip-path="url(#clip352)" style="stroke:#000000; stroke-linecap:round; stroke-linejoin:round; stroke-width:2; stroke-opacity:0.05; fill:none" points="256.138,1734.12 256.138,47.2441 "/>
<polyline clip-path="url(#clip352)" style="stroke:#000000; stroke-linecap:round; stroke-linejoin:round; stroke-width:2; stroke-opacity:0.05; fill:none" points="344.023,1734.12 344.023,47.2441 "/>
<polyline clip-path="url(#clip352)" style="stroke:#000000; stroke-linecap:round; stroke-linejoin:round; stroke-width:2; stroke-opacity:0.05; fill:none" points="431.908,1734.12 431.908,47.2441 "/>
<polyline clip-path="url(#clip352)" style="stroke:#000000; stroke-linecap:round; stroke-linejoin:round; stroke-width:2; stroke-opacity:0.05; fill:none" points="607.678,1734.12 607.678,47.2441 "/>
<polyline clip-path="url(#clip352)" style="stroke:#000000; stroke-linecap:round; stroke-linejoin:round; stroke-width:2; stroke-opacity:0.05; fill:none" points="695.564,1734.12 695.564,47.2441 "/>
<polyline clip-path="url(#clip352)" style="stroke:#000000; stroke-linecap:round; stroke-linejoin:round; stroke-width:2; stroke-opacity:0.05; fill:none" points="783.449,1734.12 783.449,47.2441 "/>
<polyline clip-path="url(#clip352)" style="stroke:#000000; stroke-linecap:round; stroke-linejoin:round; stroke-width:2; stroke-opacity:0.05; fill:none" points="871.334,1734.12 871.334,47.2441 "/>
<polyline clip-path="url(#clip352)" style="stroke:#000000; stroke-linecap:round; stroke-linejoin:round; stroke-width:2; stroke-opacity:0.05; fill:none" points="1047.1,1734.12 1047.1,47.2441 "/>
<polyline clip-path="url(#clip352)" style="stroke:#000000; stroke-linecap:round; stroke-linejoin:round; stroke-width:2; stroke-opacity:0.05; fill:none" points="1134.99,1734.12 1134.99,47.2441 "/>
<polyline clip-path="url(#clip352)" style="stroke:#000000; stroke-linecap:round; stroke-linejoin:round; stroke-width:2; stroke-opacity:0.05; fill:none" points="1222.87,1734.12 1222.87,47.2441 "/>
<polyline clip-path="url(#clip352)" style="stroke:#000000; stroke-linecap:round; stroke-linejoin:round; stroke-width:2; stroke-opacity:0.05; fill:none" points="1310.76,1734.12 1310.76,47.2441 "/>
<polyline clip-path="url(#clip352)" style="stroke:#000000; stroke-linecap:round; stroke-linejoin:round; stroke-width:2; stroke-opacity:0.05; fill:none" points="1486.53,1734.12 1486.53,47.2441 "/>
<polyline clip-path="url(#clip352)" style="stroke:#000000; stroke-linecap:round; stroke-linejoin:round; stroke-width:2; stroke-opacity:0.05; fill:none" points="1574.42,1734.12 1574.42,47.2441 "/>
<polyline clip-path="url(#clip352)" style="stroke:#000000; stroke-linecap:round; stroke-linejoin:round; stroke-width:2; stroke-opacity:0.05; fill:none" points="1662.3,1734.12 1662.3,47.2441 "/>
<polyline clip-path="url(#clip352)" style="stroke:#000000; stroke-linecap:round; stroke-linejoin:round; stroke-width:2; stroke-opacity:0.05; fill:none" points="1750.19,1734.12 1750.19,47.2441 "/>
<polyline clip-path="url(#clip352)" style="stroke:#000000; stroke-linecap:round; stroke-linejoin:round; stroke-width:2; stroke-opacity:0.05; fill:none" points="1925.96,1734.12 1925.96,47.2441 "/>
<polyline clip-path="url(#clip352)" style="stroke:#000000; stroke-linecap:round; stroke-linejoin:round; stroke-width:2; stroke-opacity:0.05; fill:none" points="2013.84,1734.12 2013.84,47.2441 "/>
<polyline clip-path="url(#clip352)" style="stroke:#000000; stroke-linecap:round; stroke-linejoin:round; stroke-width:2; stroke-opacity:0.05; fill:none" points="2101.73,1734.12 2101.73,47.2441 "/>
<polyline clip-path="url(#clip352)" style="stroke:#000000; stroke-linecap:round; stroke-linejoin:round; stroke-width:2; stroke-opacity:0.05; fill:none" points="2189.61,1734.12 2189.61,47.2441 "/>
<polyline clip-path="url(#clip352)" style="stroke:#000000; stroke-linecap:round; stroke-linejoin:round; stroke-width:2; stroke-opacity:0.05; fill:none" points="2365.38,1734.12 2365.38,47.2441 "/>
<polyline clip-path="url(#clip352)" style="stroke:#000000; stroke-linecap:round; stroke-linejoin:round; stroke-width:2; stroke-opacity:0.05; fill:none" points="2453.27,1734.12 2453.27,47.2441 "/>
<polyline clip-path="url(#clip352)" style="stroke:#000000; stroke-linecap:round; stroke-linejoin:round; stroke-width:2; stroke-opacity:0.05; fill:none" points="2541.15,1734.12 2541.15,47.2441 "/>
<polyline clip-path="url(#clip352)" style="stroke:#000000; stroke-linecap:round; stroke-linejoin:round; stroke-width:2; stroke-opacity:0.05; fill:none" points="2629.04,1734.12 2629.04,47.2441 "/>
<polyline clip-path="url(#clip350)" style="stroke:#000000; stroke-linecap:round; stroke-linejoin:round; stroke-width:4; stroke-opacity:1; fill:none" points="156.534,1734.12 2640.76,1734.12 "/>
<polyline clip-path="url(#clip350)" style="stroke:#000000; stroke-linecap:round; stroke-linejoin:round; stroke-width:4; stroke-opacity:1; fill:none" points="519.793,1734.12 519.793,1715.22 "/>
<polyline clip-path="url(#clip350)" style="stroke:#000000; stroke-linecap:round; stroke-linejoin:round; stroke-width:4; stroke-opacity:1; fill:none" points="959.219,1734.12 959.219,1715.22 "/>
<polyline clip-path="url(#clip350)" style="stroke:#000000; stroke-linecap:round; stroke-linejoin:round; stroke-width:4; stroke-opacity:1; fill:none" points="1398.65,1734.12 1398.65,1715.22 "/>
<polyline clip-path="url(#clip350)" style="stroke:#000000; stroke-linecap:round; stroke-linejoin:round; stroke-width:4; stroke-opacity:1; fill:none" points="1838.07,1734.12 1838.07,1715.22 "/>
<polyline clip-path="url(#clip350)" style="stroke:#000000; stroke-linecap:round; stroke-linejoin:round; stroke-width:4; stroke-opacity:1; fill:none" points="2277.5,1734.12 2277.5,1715.22 "/>
<polyline clip-path="url(#clip350)" style="stroke:#000000; stroke-linecap:round; stroke-linejoin:round; stroke-width:4; stroke-opacity:1; fill:none" points="168.252,1734.12 168.252,1724.67 "/>
<polyline clip-path="url(#clip350)" style="stroke:#000000; stroke-linecap:round; stroke-linejoin:round; stroke-width:4; stroke-opacity:1; fill:none" points="256.138,1734.12 256.138,1724.67 "/>
<polyline clip-path="url(#clip350)" style="stroke:#000000; stroke-linecap:round; stroke-linejoin:round; stroke-width:4; stroke-opacity:1; fill:none" points="344.023,1734.12 344.023,1724.67 "/>
<polyline clip-path="url(#clip350)" style="stroke:#000000; stroke-linecap:round; stroke-linejoin:round; stroke-width:4; stroke-opacity:1; fill:none" points="431.908,1734.12 431.908,1724.67 "/>
<polyline clip-path="url(#clip350)" style="stroke:#000000; stroke-linecap:round; stroke-linejoin:round; stroke-width:4; stroke-opacity:1; fill:none" points="607.678,1734.12 607.678,1724.67 "/>
<polyline clip-path="url(#clip350)" style="stroke:#000000; stroke-linecap:round; stroke-linejoin:round; stroke-width:4; stroke-opacity:1; fill:none" points="695.564,1734.12 695.564,1724.67 "/>
<polyline clip-path="url(#clip350)" style="stroke:#000000; stroke-linecap:round; stroke-linejoin:round; stroke-width:4; stroke-opacity:1; fill:none" points="783.449,1734.12 783.449,1724.67 "/>
<polyline clip-path="url(#clip350)" style="stroke:#000000; stroke-linecap:round; stroke-linejoin:round; stroke-width:4; stroke-opacity:1; fill:none" points="871.334,1734.12 871.334,1724.67 "/>
<polyline clip-path="url(#clip350)" style="stroke:#000000; stroke-linecap:round; stroke-linejoin:round; stroke-width:4; stroke-opacity:1; fill:none" points="1047.1,1734.12 1047.1,1724.67 "/>
<polyline clip-path="url(#clip350)" style="stroke:#000000; stroke-linecap:round; stroke-linejoin:round; stroke-width:4; stroke-opacity:1; fill:none" points="1134.99,1734.12 1134.99,1724.67 "/>
<polyline clip-path="url(#clip350)" style="stroke:#000000; stroke-linecap:round; stroke-linejoin:round; stroke-width:4; stroke-opacity:1; fill:none" points="1222.87,1734.12 1222.87,1724.67 "/>
<polyline clip-path="url(#clip350)" style="stroke:#000000; stroke-linecap:round; stroke-linejoin:round; stroke-width:4; stroke-opacity:1; fill:none" points="1310.76,1734.12 1310.76,1724.67 "/>
<polyline clip-path="url(#clip350)" style="stroke:#000000; stroke-linecap:round; stroke-linejoin:round; stroke-width:4; stroke-opacity:1; fill:none" points="1486.53,1734.12 1486.53,1724.67 "/>
<polyline clip-path="url(#clip350)" style="stroke:#000000; stroke-linecap:round; stroke-linejoin:round; stroke-width:4; stroke-opacity:1; fill:none" points="1574.42,1734.12 1574.42,1724.67 "/>
<polyline clip-path="url(#clip350)" style="stroke:#000000; stroke-linecap:round; stroke-linejoin:round; stroke-width:4; stroke-opacity:1; fill:none" points="1662.3,1734.12 1662.3,1724.67 "/>
<polyline clip-path="url(#clip350)" style="stroke:#000000; stroke-linecap:round; stroke-linejoin:round; stroke-width:4; stroke-opacity:1; fill:none" points="1750.19,1734.12 1750.19,1724.67 "/>
<polyline clip-path="url(#clip350)" style="stroke:#000000; stroke-linecap:round; stroke-linejoin:round; stroke-width:4; stroke-opacity:1; fill:none" points="1925.96,1734.12 1925.96,1724.67 "/>
<polyline clip-path="url(#clip350)" style="stroke:#000000; stroke-linecap:round; stroke-linejoin:round; stroke-width:4; stroke-opacity:1; fill:none" points="2013.84,1734.12 2013.84,1724.67 "/>
<polyline clip-path="url(#clip350)" style="stroke:#000000; stroke-linecap:round; stroke-linejoin:round; stroke-width:4; stroke-opacity:1; fill:none" points="2101.73,1734.12 2101.73,1724.67 "/>
<polyline clip-path="url(#clip350)" style="stroke:#000000; stroke-linecap:round; stroke-linejoin:round; stroke-width:4; stroke-opacity:1; fill:none" points="2189.61,1734.12 2189.61,1724.67 "/>
<polyline clip-path="url(#clip350)" style="stroke:#000000; stroke-linecap:round; stroke-linejoin:round; stroke-width:4; stroke-opacity:1; fill:none" points="2365.38,1734.12 2365.38,1724.67 "/>
<polyline clip-path="url(#clip350)" style="stroke:#000000; stroke-linecap:round; stroke-linejoin:round; stroke-width:4; stroke-opacity:1; fill:none" points="2453.27,1734.12 2453.27,1724.67 "/>
<polyline clip-path="url(#clip350)" style="stroke:#000000; stroke-linecap:round; stroke-linejoin:round; stroke-width:4; stroke-opacity:1; fill:none" points="2541.15,1734.12 2541.15,1724.67 "/>
<polyline clip-path="url(#clip350)" style="stroke:#000000; stroke-linecap:round; stroke-linejoin:round; stroke-width:4; stroke-opacity:1; fill:none" points="2629.04,1734.12 2629.04,1724.67 "/>
<path clip-path="url(#clip350)" d="M523.375 1785.46 Q523.672 1785.75 523.672 1786.17 Q523.672 1786.59 523.375 1786.89 Q523.079 1787.19 522.659 1787.19 L490.989 1787.19 Q490.569 1787.19 490.273 1786.89 Q489.976 1786.59 489.976 1786.17 Q489.976 1785.75 490.273 1785.46 Q490.569 1785.16 490.989 1785.16 L522.659 1785.16 Q523.079 1785.16 523.375 1785.46 Z" fill="#000000" fill-rule="evenodd" fill-opacity="1" /><path clip-path="url(#clip350)" d="M528.612 1782.84 Q528.612 1774.88 532.664 1770.02 Q536.715 1765.13 541.927 1765.13 Q544.966 1765.13 546.646 1766.68 Q548.35 1768.21 548.35 1770.59 Q548.35 1771.89 547.585 1772.46 Q546.819 1773.03 546.028 1773.03 Q545.114 1773.03 544.398 1772.41 Q543.681 1771.8 543.681 1770.68 Q543.681 1768.41 546.473 1768.41 Q545.164 1766.39 542.026 1766.39 Q541.063 1766.39 540.075 1766.68 Q539.087 1766.95 537.802 1767.89 Q536.517 1768.83 535.529 1770.31 Q534.541 1771.8 533.849 1774.59 Q533.158 1777.38 533.158 1781.01 L533.158 1782.22 Q535.233 1777.21 539.482 1777.23 Q543.731 1777.23 546.67 1780.47 Q549.61 1783.7 549.61 1788.49 Q549.61 1793.41 546.547 1796.67 Q543.484 1799.93 539.185 1799.93 Q537.259 1799.93 535.505 1799.12 Q533.775 1798.33 532.145 1796.5 Q530.539 1794.67 529.576 1791.16 Q528.612 1787.66 528.612 1782.84 M533.257 1787.38 Q533.257 1792.35 534.171 1794.72 Q534.319 1795.12 534.64 1795.66 Q534.986 1796.2 535.554 1796.92 Q536.147 1797.61 537.11 1798.08 Q538.074 1798.52 539.185 1798.52 Q542.57 1798.52 544.2 1795.24 Q545.065 1793.41 545.065 1788.45 Q545.065 1783.38 544.151 1781.53 Q542.594 1778.39 539.432 1778.39 Q537.308 1778.39 535.826 1779.85 Q534.368 1781.31 533.8 1783.26 Q533.257 1785.21 533.257 1787.38 Z" fill="#000000" fill-rule="evenodd" fill-opacity="1" /><path clip-path="url(#clip350)" d="M962.801 1785.46 Q963.098 1785.75 963.098 1786.17 Q963.098 1786.59 962.801 1786.89 Q962.505 1787.19 962.085 1787.19 L930.415 1787.19 Q929.995 1787.19 929.699 1786.89 Q929.402 1786.59 929.402 1786.17 Q929.402 1785.75 929.699 1785.46 Q929.995 1785.16 930.415 1785.16 L962.085 1785.16 Q962.505 1785.16 962.801 1785.46 Z" fill="#000000" fill-rule="evenodd" fill-opacity="1" /><path clip-path="url(#clip350)" d="M968.038 1792 Q968.038 1790.5 968.903 1789.78 Q969.768 1789.06 970.879 1789.06 Q972.04 1789.06 972.855 1789.83 Q973.695 1790.57 973.695 1791.88 Q973.695 1793.29 972.707 1794.08 Q971.744 1794.87 970.36 1794.67 Q971.571 1796.7 973.794 1797.61 Q976.042 1798.52 978.117 1798.52 Q980.291 1798.52 982.045 1796.65 Q983.824 1794.77 983.824 1790.17 Q983.824 1786.27 982.292 1784.02 Q980.785 1781.78 977.796 1781.78 L975.573 1781.78 Q974.807 1781.78 974.585 1781.7 Q974.362 1781.63 974.362 1781.21 Q974.362 1780.71 975.128 1780.61 Q975.894 1780.61 977.104 1780.47 Q980.044 1780.37 981.6 1777.82 Q983.009 1775.45 983.009 1772.07 Q983.009 1768.98 981.526 1767.69 Q980.069 1766.39 978.167 1766.39 Q976.388 1766.39 974.436 1767.13 Q972.485 1767.87 971.423 1769.52 Q974.56 1769.52 974.56 1772.07 Q974.56 1773.18 973.844 1773.92 Q973.152 1774.64 971.991 1774.64 Q970.879 1774.64 970.138 1773.94 Q969.397 1773.23 969.397 1772.02 Q969.397 1769.13 971.966 1767.13 Q974.56 1765.13 978.364 1765.13 Q982.119 1765.13 984.886 1767.1 Q987.677 1769.08 987.677 1772.12 Q987.677 1775.11 985.701 1777.55 Q983.725 1780 980.588 1781.01 Q984.441 1781.78 986.739 1784.39 Q989.036 1786.99 989.036 1790.17 Q989.036 1794.13 985.924 1797.04 Q982.811 1799.93 978.265 1799.93 Q974.066 1799.93 971.052 1797.66 Q968.038 1795.39 968.038 1792 Z" fill="#000000" fill-rule="evenodd" fill-opacity="1" /><path clip-path="url(#clip350)" d="M1388 1782.64 Q1388 1775.2 1389.88 1771.15 Q1392.49 1765.13 1398.67 1765.13 Q1399.98 1765.13 1401.34 1765.5 Q1402.72 1765.84 1404.45 1767.2 Q1406.2 1768.56 1407.27 1770.78 Q1409.29 1775.08 1409.29 1782.64 Q1409.29 1790.03 1407.41 1794.05 Q1404.67 1799.93 1398.62 1799.93 Q1396.35 1799.93 1394.03 1798.77 Q1391.73 1797.61 1390.27 1794.82 Q1388 1790.64 1388 1782.64 M1392.2 1782.02 Q1392.2 1789.66 1392.74 1792.69 Q1393.36 1795.98 1395.04 1797.41 Q1396.74 1798.82 1398.62 1798.82 Q1400.65 1798.82 1402.33 1797.31 Q1404.03 1795.78 1404.55 1792.5 Q1405.12 1789.26 1405.09 1782.02 Q1405.09 1774.98 1404.6 1772.17 Q1403.93 1768.88 1402.15 1767.57 Q1400.4 1766.24 1398.62 1766.24 Q1397.95 1766.24 1397.24 1766.43 Q1396.55 1766.63 1395.53 1767.2 Q1394.52 1767.77 1393.73 1769.18 Q1392.96 1770.59 1392.59 1772.71 Q1392.2 1775.45 1392.2 1782.02 Z" fill="#000000" fill-rule="evenodd" fill-opacity="1" /><path clip-path="url(#clip350)" d="M1827.57 1792 Q1827.57 1790.5 1828.44 1789.78 Q1829.3 1789.06 1830.41 1789.06 Q1831.57 1789.06 1832.39 1789.83 Q1833.23 1790.57 1833.23 1791.88 Q1833.23 1793.29 1832.24 1794.08 Q1831.28 1794.87 1829.89 1794.67 Q1831.1 1796.7 1833.33 1797.61 Q1835.58 1798.52 1837.65 1798.52 Q1839.83 1798.52 1841.58 1796.65 Q1843.36 1794.77 1843.36 1790.17 Q1843.36 1786.27 1841.83 1784.02 Q1840.32 1781.78 1837.33 1781.78 L1835.11 1781.78 Q1834.34 1781.78 1834.12 1781.7 Q1833.9 1781.63 1833.9 1781.21 Q1833.9 1780.71 1834.66 1780.61 Q1835.43 1780.61 1836.64 1780.47 Q1839.58 1780.37 1841.13 1777.82 Q1842.54 1775.45 1842.54 1772.07 Q1842.54 1768.98 1841.06 1767.69 Q1839.6 1766.39 1837.7 1766.39 Q1835.92 1766.39 1833.97 1767.13 Q1832.02 1767.87 1830.96 1769.52 Q1834.09 1769.52 1834.09 1772.07 Q1834.09 1773.18 1833.38 1773.92 Q1832.69 1774.64 1831.52 1774.64 Q1830.41 1774.64 1829.67 1773.94 Q1828.93 1773.23 1828.93 1772.02 Q1828.93 1769.13 1831.5 1767.13 Q1834.09 1765.13 1837.9 1765.13 Q1841.65 1765.13 1844.42 1767.1 Q1847.21 1769.08 1847.21 1772.12 Q1847.21 1775.11 1845.24 1777.55 Q1843.26 1780 1840.12 1781.01 Q1843.98 1781.78 1846.27 1784.39 Q1848.57 1786.99 1848.57 1790.17 Q1848.57 1794.13 1845.46 1797.04 Q1842.34 1799.93 1837.8 1799.93 Q1833.6 1799.93 1830.59 1797.66 Q1827.57 1795.39 1827.57 1792 Z" fill="#000000" fill-rule="evenodd" fill-opacity="1" /><path clip-path="url(#clip350)" d="M2267 1782.84 Q2267 1774.88 2271.05 1770.02 Q2275.1 1765.13 2280.31 1765.13 Q2283.35 1765.13 2285.03 1766.68 Q2286.74 1768.21 2286.74 1770.59 Q2286.74 1771.89 2285.97 1772.46 Q2285.2 1773.03 2284.41 1773.03 Q2283.5 1773.03 2282.78 1772.41 Q2282.07 1771.8 2282.07 1770.68 Q2282.07 1768.41 2284.86 1768.41 Q2283.55 1766.39 2280.41 1766.39 Q2279.45 1766.39 2278.46 1766.68 Q2277.47 1766.95 2276.19 1767.89 Q2274.9 1768.83 2273.92 1770.31 Q2272.93 1771.8 2272.24 1774.59 Q2271.54 1777.38 2271.54 1781.01 L2271.54 1782.22 Q2273.62 1777.21 2277.87 1777.23 Q2282.12 1777.23 2285.06 1780.47 Q2288 1783.7 2288 1788.49 Q2288 1793.41 2284.93 1796.67 Q2281.87 1799.93 2277.57 1799.93 Q2275.64 1799.93 2273.89 1799.12 Q2272.16 1798.33 2270.53 1796.5 Q2268.93 1794.67 2267.96 1791.16 Q2267 1787.66 2267 1782.84 M2271.64 1787.38 Q2271.64 1792.35 2272.56 1794.72 Q2272.7 1795.12 2273.03 1795.66 Q2273.37 1796.2 2273.94 1796.92 Q2274.53 1797.61 2275.5 1798.08 Q2276.46 1798.52 2277.57 1798.52 Q2280.96 1798.52 2282.59 1795.24 Q2283.45 1793.41 2283.45 1788.45 Q2283.45 1783.38 2282.54 1781.53 Q2280.98 1778.39 2277.82 1778.39 Q2275.69 1778.39 2274.21 1779.85 Q2272.75 1781.31 2272.19 1783.26 Q2271.64 1785.21 2271.64 1787.38 Z" fill="#000000" fill-rule="evenodd" fill-opacity="1" /><path clip-path="url(#clip350)" d="M1260.59 1851.85 L1261.91 1836.22 L1304.4 1836.22 L1305.73 1851.85 L1304 1851.85 Q1303.72 1848.72 1303.45 1846.92 Q1303.21 1845.12 1302.6 1843.42 Q1302.03 1841.69 1301.28 1840.88 Q1300.57 1840.03 1299.17 1839.38 Q1297.78 1838.7 1295.98 1838.53 Q1294.18 1838.36 1291.46 1838.36 Q1288.27 1838.36 1287.49 1838.5 Q1286.64 1838.7 1286.43 1839.31 Q1286.23 1839.89 1286.23 1841.15 L1286.23 1877.8 Q1286.23 1879.19 1286.5 1879.77 Q1286.81 1880.31 1288.4 1880.75 Q1290 1881.16 1293.53 1881.16 L1296.32 1881.16 L1296.32 1883.3 Q1293.47 1883.1 1283.11 1883.1 Q1272.81 1883.1 1269.96 1883.3 L1269.96 1881.16 L1272.75 1881.16 Q1276.28 1881.16 1277.88 1880.75 Q1279.51 1880.31 1279.78 1879.77 Q1280.05 1879.19 1280.05 1877.8 L1280.05 1841.15 Q1280.05 1840.16 1279.98 1839.76 Q1279.91 1839.35 1279.61 1839.01 Q1279.3 1838.63 1278.59 1838.5 Q1277.91 1838.36 1274.85 1838.36 Q1272.13 1838.36 1270.3 1838.53 Q1268.5 1838.7 1267.11 1839.38 Q1265.71 1840.03 1264.97 1840.88 Q1264.25 1841.69 1263.64 1843.42 Q1263.07 1845.12 1262.83 1846.92 Q1262.59 1848.72 1262.32 1851.85 L1260.59 1851.85 Z" fill="#000000" fill-rule="evenodd" fill-opacity="1" /><path clip-path="url(#clip350)" d="M1310.59 1883.3 L1310.59 1881.16 Q1314.29 1881.16 1315.14 1880.72 Q1315.99 1880.24 1315.99 1878 L1315.99 1859.29 Q1315.99 1856.7 1315.1 1856.09 Q1314.25 1855.48 1310.86 1855.48 L1310.86 1853.31 L1320.57 1852.56 L1320.57 1878.07 Q1320.57 1880.14 1321.32 1880.65 Q1322.07 1881.16 1325.46 1881.16 L1325.46 1883.3 Q1318.36 1883.1 1318.23 1883.1 Q1317.28 1883.1 1310.59 1883.3 M1313.51 1840.43 Q1313.51 1839.04 1314.56 1837.92 Q1315.65 1836.77 1317.18 1836.77 Q1318.7 1836.77 1319.79 1837.82 Q1320.88 1838.84 1320.88 1840.47 Q1320.88 1842.06 1319.79 1843.12 Q1318.7 1844.14 1317.18 1844.14 Q1315.58 1844.14 1314.53 1843.02 Q1313.51 1841.9 1313.51 1840.43 Z" fill="#000000" fill-rule="evenodd" fill-opacity="1" /><path clip-path="url(#clip350)" d="M1329.78 1883.3 L1329.78 1881.16 Q1333.48 1881.16 1334.33 1880.72 Q1335.18 1880.24 1335.18 1878 L1335.18 1859.35 Q1335.18 1856.77 1334.26 1856.13 Q1333.38 1855.48 1329.78 1855.48 L1329.78 1853.31 L1339.56 1852.56 L1339.56 1859.86 Q1342.82 1852.56 1349.85 1852.56 Q1358 1852.56 1359.12 1859.35 Q1360.31 1856.7 1362.79 1854.63 Q1365.31 1852.56 1369.21 1852.56 Q1374.44 1852.56 1376.52 1855.14 Q1378.04 1856.87 1378.35 1858.81 Q1378.66 1860.75 1378.66 1865.77 L1378.66 1879.06 Q1378.72 1880.52 1379.84 1880.86 Q1380.97 1881.16 1384.09 1881.16 L1384.09 1883.3 Q1376.99 1883.1 1376.31 1883.1 Q1375.77 1883.1 1368.43 1883.3 L1368.43 1881.16 Q1372.13 1881.16 1372.98 1880.72 Q1373.87 1880.24 1373.87 1878 L1373.87 1861.8 Q1373.87 1858.27 1372.78 1856.2 Q1371.69 1854.09 1368.7 1854.09 Q1365.1 1854.09 1362.22 1857.11 Q1359.33 1860.14 1359.33 1865.23 L1359.33 1878 Q1359.33 1880.24 1360.18 1880.72 Q1361.06 1881.16 1364.76 1881.16 L1364.76 1883.3 Q1357.66 1883.1 1356.95 1883.1 Q1356.41 1883.1 1349.1 1883.3 L1349.1 1881.16 Q1352.81 1881.16 1353.66 1880.72 Q1354.54 1880.24 1354.54 1878 L1354.54 1861.8 Q1354.54 1858.27 1353.45 1856.2 Q1352.36 1854.09 1349.38 1854.09 Q1345.78 1854.09 1342.89 1857.11 Q1340 1860.14 1340 1865.23 L1340 1878 Q1340 1880.24 1340.85 1880.72 Q1341.73 1881.16 1345.4 1881.16 L1345.4 1883.3 Q1338.3 1883.1 1337.62 1883.1 Q1337.08 1883.1 1329.78 1883.3 Z" fill="#000000" fill-rule="evenodd" fill-opacity="1" /><path clip-path="url(#clip350)" d="M1387.39 1867.98 Q1387.39 1861.43 1391.6 1856.77 Q1395.81 1852.12 1401.86 1852.12 Q1407.97 1852.12 1411.13 1856.09 Q1414.32 1860.07 1414.32 1865.77 Q1414.32 1866.83 1414.05 1867.03 Q1413.78 1867.23 1412.59 1867.23 L1393.16 1867.23 Q1393.16 1874.33 1395.27 1877.66 Q1398.19 1882.32 1403.11 1882.32 Q1403.79 1882.32 1404.61 1882.18 Q1405.42 1882.04 1407.09 1881.47 Q1408.75 1880.86 1410.21 1879.26 Q1411.67 1877.66 1412.52 1875.15 Q1412.72 1874.16 1413.4 1874.2 Q1414.32 1874.2 1414.32 1875.01 Q1414.32 1875.62 1413.64 1877.02 Q1413 1878.38 1411.74 1880.01 Q1410.48 1881.64 1408.04 1882.86 Q1405.63 1884.08 1402.7 1884.08 Q1396.59 1884.08 1391.97 1879.46 Q1387.39 1874.81 1387.39 1867.98 M1393.23 1865.77 L1409.74 1865.77 Q1409.74 1864.31 1409.46 1862.68 Q1409.23 1861.05 1408.48 1858.81 Q1407.77 1856.53 1406.07 1855.11 Q1404.37 1853.68 1401.86 1853.68 Q1400.73 1853.68 1399.51 1854.16 Q1398.32 1854.63 1396.86 1855.79 Q1395.4 1856.94 1394.38 1859.56 Q1393.36 1862.17 1393.23 1865.77 Z" fill="#000000" fill-rule="evenodd" fill-opacity="1" /><path clip-path="url(#clip350)" d="M1446.69 1900.69 L1446.69 1831.13 L1457.19 1831.13 L1457.19 1832.72 L1451.35 1832.72 L1451.35 1899.1 L1457.19 1899.1 L1457.19 1900.69 L1446.69 1900.69 Z" fill="#000000" fill-rule="evenodd" fill-opacity="1" /><path clip-path="url(#clip350)" d="M1461.03 1883.3 L1461.03 1881.16 Q1464.73 1881.16 1465.58 1880.72 Q1466.43 1880.24 1466.43 1878 L1466.43 1859.35 Q1466.43 1856.77 1465.51 1856.13 Q1464.63 1855.48 1461.03 1855.48 L1461.03 1853.31 L1470.81 1852.56 L1470.81 1859.86 Q1474.07 1852.56 1481.1 1852.56 Q1486.33 1852.56 1488.4 1855.14 Q1489.93 1856.87 1490.24 1858.81 Q1490.58 1860.75 1490.58 1865.77 L1490.58 1879.06 Q1490.65 1880.52 1491.77 1880.86 Q1492.89 1881.16 1496.01 1881.16 L1496.01 1883.3 Q1488.91 1883.1 1488.2 1883.1 Q1487.66 1883.1 1480.35 1883.3 L1480.35 1881.16 Q1484.06 1881.16 1484.9 1880.72 Q1485.79 1880.24 1485.79 1878 L1485.79 1861.8 Q1485.79 1858.27 1484.7 1856.2 Q1483.61 1854.09 1480.62 1854.09 Q1477.02 1854.09 1474.14 1857.11 Q1471.25 1860.14 1471.25 1865.23 L1471.25 1878 Q1471.25 1880.24 1472.1 1880.72 Q1472.98 1881.16 1476.65 1881.16 L1476.65 1883.3 Q1469.55 1883.1 1468.87 1883.1 Q1468.33 1883.1 1461.03 1883.3 Z" fill="#000000" fill-rule="evenodd" fill-opacity="1" /><path clip-path="url(#clip350)" d="M1499.68 1882.38 L1499.68 1873.21 Q1499.68 1872.43 1499.71 1872.16 Q1499.75 1871.89 1499.95 1871.68 Q1500.16 1871.48 1500.56 1871.48 Q1501.04 1871.48 1501.21 1871.68 Q1501.41 1871.89 1501.55 1872.67 Q1502.6 1877.46 1504.84 1880.01 Q1507.12 1882.52 1511.23 1882.52 Q1515.14 1882.52 1517.11 1880.79 Q1519.08 1879.06 1519.08 1876.2 Q1519.08 1871.11 1511.84 1869.82 Q1507.66 1868.97 1505.93 1868.42 Q1504.2 1867.85 1502.67 1866.59 Q1499.68 1864.14 1499.68 1860.68 Q1499.68 1857.21 1502.3 1854.67 Q1504.95 1852.12 1510.79 1852.12 Q1514.69 1852.12 1517.34 1854.09 Q1518.12 1853.48 1518.53 1852.97 Q1519.45 1852.12 1519.92 1852.12 Q1520.47 1852.12 1520.57 1852.49 Q1520.67 1852.83 1520.67 1853.82 L1520.67 1860.81 Q1520.67 1861.6 1520.64 1861.87 Q1520.6 1862.14 1520.4 1862.34 Q1520.2 1862.51 1519.75 1862.51 Q1518.97 1862.51 1518.94 1861.87 Q1518.4 1853.44 1510.79 1853.44 Q1506.68 1853.44 1504.84 1855.04 Q1503.01 1856.6 1503.01 1858.74 Q1503.01 1859.93 1503.55 1860.85 Q1504.13 1861.73 1504.84 1862.28 Q1505.59 1862.78 1506.95 1863.29 Q1508.31 1863.77 1509.12 1863.94 Q1509.97 1864.11 1511.57 1864.45 Q1517.14 1865.5 1519.48 1867.78 Q1522.4 1870.7 1522.4 1874.4 Q1522.4 1878.51 1519.62 1881.3 Q1516.83 1884.08 1511.23 1884.08 Q1506.71 1884.08 1503.55 1881.06 Q1503.15 1881.47 1502.84 1881.84 Q1502.53 1882.18 1502.4 1882.32 Q1502.3 1882.45 1502.26 1882.55 Q1502.23 1882.62 1502.16 1882.69 Q1500.77 1884.08 1500.43 1884.08 Q1499.88 1884.08 1499.78 1883.71 Q1499.68 1883.37 1499.68 1882.38 Z" fill="#000000" fill-rule="evenodd" fill-opacity="1" /><path clip-path="url(#clip350)" d="M1526.21 1899.1 L1532.05 1899.1 L1532.05 1832.72 L1526.21 1832.72 L1526.21 1831.13 L1536.7 1831.13 L1536.7 1900.69 L1526.21 1900.69 L1526.21 1899.1 Z" fill="#000000" fill-rule="evenodd" fill-opacity="1" /><polyline clip-path="url(#clip352)" style="stroke:#000000; stroke-linecap:round; stroke-linejoin:round; stroke-width:2; stroke-opacity:0.1; fill:none" points="156.534,1488.57 2640.76,1488.57 "/>
<polyline clip-path="url(#clip352)" style="stroke:#000000; stroke-linecap:round; stroke-linejoin:round; stroke-width:2; stroke-opacity:0.1; fill:none" points="156.534,1140.17 2640.76,1140.17 "/>
<polyline clip-path="url(#clip352)" style="stroke:#000000; stroke-linecap:round; stroke-linejoin:round; stroke-width:2; stroke-opacity:0.1; fill:none" points="156.534,791.777 2640.76,791.777 "/>
<polyline clip-path="url(#clip352)" style="stroke:#000000; stroke-linecap:round; stroke-linejoin:round; stroke-width:2; stroke-opacity:0.1; fill:none" points="156.534,443.381 2640.76,443.381 "/>
<polyline clip-path="url(#clip352)" style="stroke:#000000; stroke-linecap:round; stroke-linejoin:round; stroke-width:2; stroke-opacity:0.1; fill:none" points="156.534,94.9858 2640.76,94.9858 "/>
<polyline clip-path="url(#clip352)" style="stroke:#000000; stroke-linecap:round; stroke-linejoin:round; stroke-width:2; stroke-opacity:0.05; fill:none" points="156.534,1697.61 2640.76,1697.61 "/>
<polyline clip-path="url(#clip352)" style="stroke:#000000; stroke-linecap:round; stroke-linejoin:round; stroke-width:2; stroke-opacity:0.05; fill:none" points="156.534,1627.93 2640.76,1627.93 "/>
<polyline clip-path="url(#clip352)" style="stroke:#000000; stroke-linecap:round; stroke-linejoin:round; stroke-width:2; stroke-opacity:0.05; fill:none" points="156.534,1558.25 2640.76,1558.25 "/>
<polyline clip-path="url(#clip352)" style="stroke:#000000; stroke-linecap:round; stroke-linejoin:round; stroke-width:2; stroke-opacity:0.05; fill:none" points="156.534,1418.89 2640.76,1418.89 "/>
<polyline clip-path="url(#clip352)" style="stroke:#000000; stroke-linecap:round; stroke-linejoin:round; stroke-width:2; stroke-opacity:0.05; fill:none" points="156.534,1349.21 2640.76,1349.21 "/>
<polyline clip-path="url(#clip352)" style="stroke:#000000; stroke-linecap:round; stroke-linejoin:round; stroke-width:2; stroke-opacity:0.05; fill:none" points="156.534,1279.53 2640.76,1279.53 "/>
<polyline clip-path="url(#clip352)" style="stroke:#000000; stroke-linecap:round; stroke-linejoin:round; stroke-width:2; stroke-opacity:0.05; fill:none" points="156.534,1209.85 2640.76,1209.85 "/>
<polyline clip-path="url(#clip352)" style="stroke:#000000; stroke-linecap:round; stroke-linejoin:round; stroke-width:2; stroke-opacity:0.05; fill:none" points="156.534,1070.49 2640.76,1070.49 "/>
<polyline clip-path="url(#clip352)" style="stroke:#000000; stroke-linecap:round; stroke-linejoin:round; stroke-width:2; stroke-opacity:0.05; fill:none" points="156.534,1000.81 2640.76,1000.81 "/>
<polyline clip-path="url(#clip352)" style="stroke:#000000; stroke-linecap:round; stroke-linejoin:round; stroke-width:2; stroke-opacity:0.05; fill:none" points="156.534,931.135 2640.76,931.135 "/>
<polyline clip-path="url(#clip352)" style="stroke:#000000; stroke-linecap:round; stroke-linejoin:round; stroke-width:2; stroke-opacity:0.05; fill:none" points="156.534,861.456 2640.76,861.456 "/>
<polyline clip-path="url(#clip352)" style="stroke:#000000; stroke-linecap:round; stroke-linejoin:round; stroke-width:2; stroke-opacity:0.05; fill:none" points="156.534,722.098 2640.76,722.098 "/>
<polyline clip-path="url(#clip352)" style="stroke:#000000; stroke-linecap:round; stroke-linejoin:round; stroke-width:2; stroke-opacity:0.05; fill:none" points="156.534,652.419 2640.76,652.419 "/>
<polyline clip-path="url(#clip352)" style="stroke:#000000; stroke-linecap:round; stroke-linejoin:round; stroke-width:2; stroke-opacity:0.05; fill:none" points="156.534,582.74 2640.76,582.74 "/>
<polyline clip-path="url(#clip352)" style="stroke:#000000; stroke-linecap:round; stroke-linejoin:round; stroke-width:2; stroke-opacity:0.05; fill:none" points="156.534,513.061 2640.76,513.061 "/>
<polyline clip-path="url(#clip352)" style="stroke:#000000; stroke-linecap:round; stroke-linejoin:round; stroke-width:2; stroke-opacity:0.05; fill:none" points="156.534,373.702 2640.76,373.702 "/>
<polyline clip-path="url(#clip352)" style="stroke:#000000; stroke-linecap:round; stroke-linejoin:round; stroke-width:2; stroke-opacity:0.05; fill:none" points="156.534,304.023 2640.76,304.023 "/>
<polyline clip-path="url(#clip352)" style="stroke:#000000; stroke-linecap:round; stroke-linejoin:round; stroke-width:2; stroke-opacity:0.05; fill:none" points="156.534,234.344 2640.76,234.344 "/>
<polyline clip-path="url(#clip352)" style="stroke:#000000; stroke-linecap:round; stroke-linejoin:round; stroke-width:2; stroke-opacity:0.05; fill:none" points="156.534,164.665 2640.76,164.665 "/>
<polyline clip-path="url(#clip350)" style="stroke:#000000; stroke-linecap:round; stroke-linejoin:round; stroke-width:4; stroke-opacity:1; fill:none" points="156.534,1734.12 156.534,47.2441 "/>
<polyline clip-path="url(#clip350)" style="stroke:#000000; stroke-linecap:round; stroke-linejoin:round; stroke-width:4; stroke-opacity:1; fill:none" points="156.534,1488.57 175.432,1488.57 "/>
<polyline clip-path="url(#clip350)" style="stroke:#000000; stroke-linecap:round; stroke-linejoin:round; stroke-width:4; stroke-opacity:1; fill:none" points="156.534,1140.17 175.432,1140.17 "/>
<polyline clip-path="url(#clip350)" style="stroke:#000000; stroke-linecap:round; stroke-linejoin:round; stroke-width:4; stroke-opacity:1; fill:none" points="156.534,791.777 175.432,791.777 "/>
<polyline clip-path="url(#clip350)" style="stroke:#000000; stroke-linecap:round; stroke-linejoin:round; stroke-width:4; stroke-opacity:1; fill:none" points="156.534,443.381 175.432,443.381 "/>
<polyline clip-path="url(#clip350)" style="stroke:#000000; stroke-linecap:round; stroke-linejoin:round; stroke-width:4; stroke-opacity:1; fill:none" points="156.534,94.9858 175.432,94.9858 "/>
<polyline clip-path="url(#clip350)" style="stroke:#000000; stroke-linecap:round; stroke-linejoin:round; stroke-width:4; stroke-opacity:1; fill:none" points="156.534,1697.61 165.983,1697.61 "/>
<polyline clip-path="url(#clip350)" style="stroke:#000000; stroke-linecap:round; stroke-linejoin:round; stroke-width:4; stroke-opacity:1; fill:none" points="156.534,1627.93 165.983,1627.93 "/>
<polyline clip-path="url(#clip350)" style="stroke:#000000; stroke-linecap:round; stroke-linejoin:round; stroke-width:4; stroke-opacity:1; fill:none" points="156.534,1558.25 165.983,1558.25 "/>
<polyline clip-path="url(#clip350)" style="stroke:#000000; stroke-linecap:round; stroke-linejoin:round; stroke-width:4; stroke-opacity:1; fill:none" points="156.534,1418.89 165.983,1418.89 "/>
<polyline clip-path="url(#clip350)" style="stroke:#000000; stroke-linecap:round; stroke-linejoin:round; stroke-width:4; stroke-opacity:1; fill:none" points="156.534,1349.21 165.983,1349.21 "/>
<polyline clip-path="url(#clip350)" style="stroke:#000000; stroke-linecap:round; stroke-linejoin:round; stroke-width:4; stroke-opacity:1; fill:none" points="156.534,1279.53 165.983,1279.53 "/>
<polyline clip-path="url(#clip350)" style="stroke:#000000; stroke-linecap:round; stroke-linejoin:round; stroke-width:4; stroke-opacity:1; fill:none" points="156.534,1209.85 165.983,1209.85 "/>
<polyline clip-path="url(#clip350)" style="stroke:#000000; stroke-linecap:round; stroke-linejoin:round; stroke-width:4; stroke-opacity:1; fill:none" points="156.534,1070.49 165.983,1070.49 "/>
<polyline clip-path="url(#clip350)" style="stroke:#000000; stroke-linecap:round; stroke-linejoin:round; stroke-width:4; stroke-opacity:1; fill:none" points="156.534,1000.81 165.983,1000.81 "/>
<polyline clip-path="url(#clip350)" style="stroke:#000000; stroke-linecap:round; stroke-linejoin:round; stroke-width:4; stroke-opacity:1; fill:none" points="156.534,931.135 165.983,931.135 "/>
<polyline clip-path="url(#clip350)" style="stroke:#000000; stroke-linecap:round; stroke-linejoin:round; stroke-width:4; stroke-opacity:1; fill:none" points="156.534,861.456 165.983,861.456 "/>
<polyline clip-path="url(#clip350)" style="stroke:#000000; stroke-linecap:round; stroke-linejoin:round; stroke-width:4; stroke-opacity:1; fill:none" points="156.534,722.098 165.983,722.098 "/>
<polyline clip-path="url(#clip350)" style="stroke:#000000; stroke-linecap:round; stroke-linejoin:round; stroke-width:4; stroke-opacity:1; fill:none" points="156.534,652.419 165.983,652.419 "/>
<polyline clip-path="url(#clip350)" style="stroke:#000000; stroke-linecap:round; stroke-linejoin:round; stroke-width:4; stroke-opacity:1; fill:none" points="156.534,582.74 165.983,582.74 "/>
<polyline clip-path="url(#clip350)" style="stroke:#000000; stroke-linecap:round; stroke-linejoin:round; stroke-width:4; stroke-opacity:1; fill:none" points="156.534,513.061 165.983,513.061 "/>
<polyline clip-path="url(#clip350)" style="stroke:#000000; stroke-linecap:round; stroke-linejoin:round; stroke-width:4; stroke-opacity:1; fill:none" points="156.534,373.702 165.983,373.702 "/>
<polyline clip-path="url(#clip350)" style="stroke:#000000; stroke-linecap:round; stroke-linejoin:round; stroke-width:4; stroke-opacity:1; fill:none" points="156.534,304.023 165.983,304.023 "/>
<polyline clip-path="url(#clip350)" style="stroke:#000000; stroke-linecap:round; stroke-linejoin:round; stroke-width:4; stroke-opacity:1; fill:none" points="156.534,234.344 165.983,234.344 "/>
<polyline clip-path="url(#clip350)" style="stroke:#000000; stroke-linecap:round; stroke-linejoin:round; stroke-width:4; stroke-opacity:1; fill:none" points="156.534,164.665 165.983,164.665 "/>
<path clip-path="url(#clip350)" d="M61.6384 1049.66 L59.4985 1049.66 Q59.3626 1043.48 54.8111 1041.89 L13.2353 1027.48 Q12.3861 1027.21 12.1144 1026.91 Q11.8426 1026.6 11.8426 1025.82 Q11.8426 1025.41 11.9106 1025.17 Q11.9785 1024.9 12.2163 1024.73 Q12.4541 1024.56 12.5899 1024.49 Q12.7258 1024.43 13.2353 1024.22 L56.7132 1009.21 Q58.4455 1008.67 58.989 1007.54 Q59.4985 1006.42 59.4985 1003.26 L59.4985 1002.04 L61.6384 1002.04 Q61.4346 1006.42 61.4346 1011.14 Q61.4346 1018.65 61.6384 1021.17 L59.4985 1021.17 Q59.4985 1015.39 57.3926 1015.39 Q57.2567 1015.39 56.4075 1015.59 L45.7758 1019.26 L45.7758 1036.45 L54.879 1039.68 Q55.1507 1039.81 55.932 1039.81 Q57.3926 1039.81 58.4455 1038.45 Q59.4985 1037.1 59.4985 1034.58 L61.6384 1034.58 Q61.4346 1041.27 61.4346 1042.6 Q61.4346 1044.87 61.6384 1049.66 M43.6359 1035.7 L43.6359 1020.04 L21.0138 1027.89 L43.6359 1035.7 Z" fill="#000000" fill-rule="evenodd" fill-opacity="1" /><path clip-path="url(#clip350)" d="M61.6384 997.49 L59.4985 997.49 Q59.4985 993.788 59.0569 992.939 Q58.5814 992.089 56.3396 992.089 L37.6916 992.089 Q35.1101 992.089 34.4647 993.006 Q33.8194 993.89 33.8194 997.49 L31.6455 997.49 L30.8982 987.708 L38.2011 987.708 Q30.8982 984.447 30.8982 977.416 Q30.8982 969.263 37.6916 968.143 Q35.0422 966.954 32.9702 964.474 Q30.8982 961.961 30.8982 958.054 Q30.8982 952.823 33.4797 950.751 Q35.212 949.223 37.1482 948.917 Q39.0843 948.611 44.1114 948.611 L57.3926 948.611 Q58.8531 948.544 59.1928 947.423 Q59.4985 946.302 59.4985 943.177 L61.6384 943.177 Q61.4346 950.276 61.4346 950.955 Q61.4346 951.499 61.6384 958.836 L59.4985 958.836 Q59.4985 955.133 59.0569 954.284 Q58.5814 953.401 56.3396 953.401 L40.1373 953.401 Q36.6047 953.401 34.5327 954.488 Q32.4267 955.575 32.4267 958.564 Q32.4267 962.164 35.4498 965.052 Q38.4729 967.939 43.5679 967.939 L56.3396 967.939 Q58.5814 967.939 59.0569 967.09 Q59.4985 966.206 59.4985 962.504 L61.6384 962.504 Q61.4346 969.603 61.4346 970.316 Q61.4346 970.86 61.6384 978.163 L59.4985 978.163 Q59.4985 974.46 59.0569 973.611 Q58.5814 972.728 56.3396 972.728 L40.1373 972.728 Q36.6047 972.728 34.5327 973.815 Q32.4267 974.902 32.4267 977.891 Q32.4267 981.492 35.4498 984.379 Q38.4729 987.266 43.5679 987.266 L56.3396 987.266 Q58.5814 987.266 59.0569 986.417 Q59.4985 985.534 59.4985 981.865 L61.6384 981.865 Q61.4346 988.964 61.4346 989.644 Q61.4346 990.187 61.6384 997.49 Z" fill="#000000" fill-rule="evenodd" fill-opacity="1" /><path clip-path="url(#clip350)" d="M72.9835 939.882 Q72.9835 936.179 72.5079 935.33 Q72.0663 934.447 69.8585 934.447 L37.284 934.447 Q34.9743 934.447 34.3968 935.33 Q33.8194 936.179 33.8194 939.882 L31.6455 939.882 L30.8982 929.862 L35.4838 929.862 Q30.8982 925.684 30.8982 920.113 Q30.8982 914.203 35.4838 909.889 Q40.0693 905.575 46.625 905.575 Q53.2486 905.575 57.8341 910.161 Q62.4197 914.746 62.4197 921.098 Q62.4197 924.563 60.6534 926.906 Q58.8531 929.216 57.5284 929.658 L58.1738 929.658 L69.8585 929.658 Q72.1003 929.658 72.5419 928.775 Q72.9835 927.892 72.9835 924.223 L75.1234 924.223 Q74.9196 931.526 74.9196 932.069 Q74.9196 932.749 75.1234 939.882 L72.9835 939.882 M53.7241 929.658 Q54.7771 929.658 55.1507 929.522 Q55.5244 929.352 56.6453 928.673 Q60.8572 925.921 60.8572 921.438 Q60.8572 921.404 60.8572 921.37 Q60.8572 917.396 56.8151 914.373 Q52.7391 911.35 46.625 911.35 Q40.7826 911.35 36.7066 914.101 Q32.6305 916.852 32.6305 920.657 Q32.6305 923.374 34.0911 925.752 Q35.5517 928.129 38.2011 929.658 L53.7241 929.658 Z" fill="#000000" fill-rule="evenodd" fill-opacity="1" /><path clip-path="url(#clip350)" d="M61.6384 900.922 L59.4985 900.922 Q59.4985 897.219 59.0569 896.37 Q58.5814 895.521 56.3396 895.521 L20.1646 895.521 Q17.5831 895.521 16.9377 896.438 Q16.2923 897.321 16.2923 900.922 L14.1184 900.922 L13.3712 890.935 L56.3396 890.935 Q58.5814 890.935 59.0569 890.052 Q59.4985 889.169 59.4985 885.501 L61.6384 885.501 Q61.6384 886.35 61.5705 888.116 Q61.5026 889.882 61.4686 891.173 Q61.4346 892.464 61.4346 893.211 Q61.4346 894.026 61.6384 900.922 Z" fill="#000000" fill-rule="evenodd" fill-opacity="1" /><path clip-path="url(#clip350)" d="M61.6384 881.662 L59.4985 881.662 Q59.4985 877.96 59.0569 877.111 Q58.5814 876.261 56.3396 876.261 L37.6237 876.261 Q35.0422 876.261 34.4308 877.145 Q33.8194 877.994 33.8194 881.391 L31.6455 881.391 L30.8982 871.676 L56.4075 871.676 Q58.4795 871.676 58.989 870.929 Q59.4985 870.181 59.4985 866.785 L61.6384 866.785 Q61.4346 873.884 61.4346 874.02 Q61.4346 874.971 61.6384 881.662 M18.7719 878.741 Q17.3793 878.741 16.2584 877.688 Q15.1035 876.601 15.1035 875.073 Q15.1035 873.544 16.1565 872.457 Q17.1755 871.37 18.8059 871.37 Q20.4024 871.37 21.4553 872.457 Q22.4744 873.544 22.4744 875.073 Q22.4744 876.669 21.3534 877.722 Q20.2325 878.741 18.7719 878.741 Z" fill="#000000" fill-rule="evenodd" fill-opacity="1" /><path clip-path="url(#clip350)" d="M33.8194 863.388 L32.2909 863.388 Q32.155 860.195 29.9132 858.089 Q27.6374 855.949 24.8521 855.236 Q22.0667 854.489 18.8399 854.421 L18.8399 852.688 L31.6455 852.688 L31.6455 842.736 L33.8194 842.736 L33.8194 852.688 L53.1467 852.688 Q60.6534 852.688 60.6534 848.001 Q60.6534 845.997 58.6154 844.672 Q56.5434 843.347 52.8749 843.347 L49.0366 843.347 L49.0366 841.615 L53.0108 841.615 Q56.7811 841.615 59.6004 843.347 Q62.4197 845.08 62.4197 848.51 Q62.4197 849.767 62.08 851.024 Q61.7743 852.247 60.9591 853.877 Q60.1099 855.474 58.0719 856.493 Q55.9999 857.478 53.0108 857.478 L33.8194 857.478 L33.8194 863.388 Z" fill="#000000" fill-rule="evenodd" fill-opacity="1" /><path clip-path="url(#clip350)" d="M33.8194 835.501 L31.6455 835.501 L30.8982 825.277 L53.9958 825.277 Q55.6602 825.277 56.6453 825.141 Q57.5964 825.005 58.7173 824.462 Q59.8382 823.884 60.3477 822.593 Q60.8572 821.269 60.8572 819.163 Q60.8572 815.392 57.7662 813.083 Q54.6752 810.739 50.0896 810.739 L37.6916 810.739 Q35.1101 810.739 34.4647 811.656 Q33.8194 812.573 33.8194 816.174 L31.6455 816.174 L30.8982 805.95 L55.5923 805.95 Q58.1738 805.95 58.8531 805.066 Q59.4985 804.149 59.4985 800.515 L61.6384 800.515 L62.4197 810.535 L56.1358 810.535 Q62.3857 813.456 62.4197 819.502 Q62.4197 822.559 61.6384 824.665 Q60.8572 826.737 59.9061 827.79 Q58.9211 828.843 57.0529 829.421 Q55.1847 829.964 54.0298 830.032 Q52.8749 830.1 50.6331 830.1 L40.2052 830.1 Q35.4838 830.1 34.6686 830.78 Q33.8194 831.459 33.8194 835.501 Z" fill="#000000" fill-rule="evenodd" fill-opacity="1" /><path clip-path="url(#clip350)" d="M46.6929 796.778 Q40.0693 796.778 35.4838 792.159 Q30.8982 787.539 30.8982 781.289 Q30.8982 775.991 35.212 772.526 L20.1646 772.526 Q17.5831 772.526 16.9377 773.443 Q16.2923 774.326 16.2923 777.927 L14.1184 777.927 L13.3712 767.906 L55.5923 767.906 Q58.1738 767.906 58.8531 767.023 Q59.4985 766.106 59.4985 762.506 L61.6384 762.506 L62.4197 772.73 L57.8002 772.73 Q62.3857 776.33 62.4197 782.037 Q62.4197 788.015 57.8341 792.397 Q53.2486 796.778 46.6929 796.778 M46.7608 791.004 Q53.2146 791.004 56.4075 789 Q60.8572 786.215 60.8572 781.697 Q60.8572 776.534 55.9999 773.477 Q54.8111 772.696 53.4184 772.73 L39.1522 772.73 Q37.7596 772.73 36.6047 773.477 Q32.4267 776.33 32.4267 780.984 Q32.4267 785.841 36.8764 788.864 Q40.2052 791.004 46.7608 791.004 Z" fill="#000000" fill-rule="evenodd" fill-opacity="1" /><path clip-path="url(#clip350)" d="M46.3193 758.633 Q39.7636 758.633 35.1101 754.421 Q30.4566 750.21 30.4566 744.163 Q30.4566 738.049 34.4308 734.89 Q38.4049 731.697 44.1114 731.697 Q45.1644 731.697 45.3682 731.969 Q45.572 732.241 45.572 733.43 L45.572 752.859 Q52.6711 752.859 55.9999 750.753 Q60.6534 747.832 60.6534 742.907 Q60.6534 742.227 60.5175 741.412 Q60.3817 740.597 59.8042 738.932 Q59.1928 737.268 57.5964 735.807 Q55.9999 734.347 53.4863 733.498 Q52.5013 733.294 52.5353 732.615 Q52.5353 731.697 53.3505 731.697 Q53.9619 731.697 55.3545 732.377 Q56.7132 733.022 58.3436 734.279 Q59.9741 735.536 61.1969 737.981 Q62.4197 740.393 62.4197 743.314 Q62.4197 749.428 57.8002 754.048 Q53.1467 758.633 46.3193 758.633 M44.1114 752.791 L44.1114 736.283 Q42.6508 736.283 41.0204 736.555 Q39.39 736.793 37.1482 737.54 Q34.8724 738.253 33.4457 739.951 Q32.0191 741.65 32.0191 744.163 Q32.0191 745.284 32.4947 746.507 Q32.9702 747.696 34.1251 749.157 Q35.28 750.617 37.8954 751.636 Q40.5109 752.655 44.1114 752.791 Z" fill="#000000" fill-rule="evenodd" fill-opacity="1" /><polyline clip-path="url(#clip352)" style="stroke:#4c4cd7; stroke-linecap:round; stroke-linejoin:round; stroke-width:4; stroke-opacity:1; fill:none" points="226.843,1500.96 229.189,1500.98 231.534,1500.98 233.88,1500.97 236.226,1500.94 238.572,1500.89 240.918,1500.82 243.264,1500.73 245.61,1500.63 247.956,1500.51 250.302,1500.36 252.648,1500.2 254.994,1500.02 257.34,1499.83 259.686,1499.61 262.032,1499.38 264.378,1499.12 266.724,1498.85 269.07,1498.57 271.416,1498.26 273.762,1497.94 276.108,1497.6 278.454,1497.24 280.799,1496.87 283.145,1496.49 285.491,1496.08 287.837,1495.66 290.183,1495.23 292.529,1494.78 294.875,1494.32 297.221,1493.85 299.567,1493.36 301.913,1492.86 304.259,1492.35 306.605,1491.83 308.951,1491.3 311.297,1490.76 313.643,1490.21 315.989,1489.65 318.335,1489.08 320.681,1488.51 323.027,1487.93 325.373,1487.34 327.718,1486.75 330.064,1486.15 332.41,1485.55 334.756,1484.95 337.102,1484.35 339.448,1483.75 341.794,1483.14 344.14,1482.54 346.486,1481.94 348.832,1481.34 351.178,1480.74 353.524,1480.15 355.87,1479.56 358.216,1478.98 360.562,1478.41 362.908,1477.84 365.254,1477.28 367.6,1476.73 369.946,1476.19 372.292,1475.66 374.638,1475.14 376.983,1474.63 379.329,1474.14 381.675,1473.66 384.021,1473.19 386.367,1472.74 388.713,1472.31 391.059,1471.89 393.405,1471.49 395.751,1471.11 398.097,1470.75 400.443,1470.4 402.789,1470.08 405.135,1469.78 407.481,1469.5 409.827,1469.24 412.173,1469.01 414.519,1468.79 416.865,1468.6 419.211,1468.44 421.557,1468.3 423.902,1468.18 426.248,1468.09 428.594,1468.03 430.94,1467.99 433.286,1467.97 435.632,1467.99 437.978,1468.02 440.324,1468.09 442.67,1468.18 445.016,1468.3 447.362,1468.45 449.708,1468.62 452.054,1468.82 454.4,1469.05 456.746,1469.31 459.092,1469.59 461.438,1469.89 463.784,1470.23 466.13,1470.59 468.476,1470.97 470.822,1471.39 473.167,1471.82 475.513,1472.28 477.859,1472.77 480.205,1473.28 482.551,1473.81 484.897,1474.37 487.243,1474.94 489.589,1475.54 491.935,1476.16 494.281,1476.8 496.627,1477.46 498.973,1478.14 501.319,1478.84 503.665,1479.55 506.011,1480.28 508.357,1481.03 510.703,1481.79 513.049,1482.56 515.395,1483.35 517.741,1484.15 520.086,1484.95 522.432,1485.77 524.778,1486.59 527.124,1487.43 529.47,1488.27 531.816,1489.11 534.162,1489.96 536.508,1490.81 538.854,1491.66 541.2,1492.51 543.546,1493.36 545.892,1494.2 548.238,1495.05 550.584,1495.89 552.93,1496.72 555.276,1497.54 557.622,1498.36 559.968,1499.17 562.314,1499.96 564.66,1500.74 567.006,1501.51 569.351,1502.27 571.697,1503 574.043,1503.72 576.389,1504.42 578.735,1505.1 581.081,1505.76 583.427,1506.4 585.773,1507.01 588.119,1507.6 590.465,1508.16 592.811,1508.69 595.157,1509.2 597.503,1509.67 599.849,1510.12 602.195,1510.53 604.541,1510.91 606.887,1511.26 609.233,1511.58 611.579,1511.86 613.925,1512.1 616.27,1512.3 618.616,1512.47 620.962,1512.6 623.308,1512.69 625.654,1512.74 628,1512.75 630.346,1512.72 632.692,1512.65 635.038,1512.54 637.384,1512.38 639.73,1512.19 642.076,1511.95 644.422,1511.66 646.768,1511.34 649.114,1510.97 651.46,1510.56 653.806,1510.1 656.152,1509.6 658.498,1509.06 660.844,1508.48 663.19,1507.85 665.535,1507.18 667.881,1506.47 670.227,1505.72 672.573,1504.93 674.919,1504.1 677.265,1503.23 679.611,1502.32 681.957,1501.37 684.303,1500.39 686.649,1499.37 688.995,1498.31 691.341,1497.22 693.687,1496.1 696.033,1494.94 698.379,1493.76 700.725,1492.54 703.071,1491.3 705.417,1490.03 707.763,1488.73 710.109,1487.42 712.454,1486.08 714.8,1484.71 717.146,1483.34 719.492,1481.94 721.838,1480.53 724.184,1479.1 726.53,1477.67 728.876,1476.22 731.222,1474.77 733.568,1473.31 735.914,1471.84 738.26,1470.38 740.606,1468.92 742.952,1467.46 745.298,1466 747.644,1464.55 749.99,1463.11 752.336,1461.69 754.682,1460.28 757.028,1458.88 759.373,1457.5 761.719,1456.15 764.065,1454.82 766.411,1453.51 768.757,1452.23 771.103,1450.99 773.449,1449.77 775.795,1448.59 778.141,1447.45 780.487,1446.35 782.833,1445.29 785.179,1444.28 787.525,1443.32 789.871,1442.4 792.217,1441.54 794.563,1440.73 796.909,1439.97 799.255,1439.28 801.601,1438.65 803.947,1438.08 806.293,1437.57 808.638,1437.13 810.984,1436.76 813.33,1436.46 815.676,1436.24 818.022,1436.08 820.368,1436.01 822.714,1436.01 825.06,1436.1 827.406,1436.26 829.752,1436.51 832.098,1436.84 834.444,1437.26 836.79,1437.76 839.136,1438.35 841.482,1439.04 843.828,1439.81 846.174,1440.67 848.52,1441.63 850.866,1442.67 853.212,1443.81 855.557,1445.05 857.903,1446.38 860.249,1447.8 862.595,1449.32 864.941,1450.93 867.287,1452.64 869.633,1454.44 871.979,1456.34 874.325,1458.33 876.671,1460.42 879.017,1462.59 881.363,1464.87 883.709,1467.23 886.055,1469.68 888.401,1472.22 890.747,1474.85 893.093,1477.57 895.439,1480.38 897.785,1483.26 900.131,1486.23 902.477,1489.28 904.822,1492.41 907.168,1495.62 909.514,1498.9 911.86,1502.25 914.206,1505.67 916.552,1509.16 918.898,1512.72 921.244,1516.33 923.59,1520 925.936,1523.73 928.282,1527.51 930.628,1531.34 932.974,1535.22 935.32,1539.14 937.666,1543.1 940.012,1547.09 942.358,1551.11 944.704,1555.16 947.05,1559.23 949.396,1563.32 951.741,1567.43 954.087,1571.54 956.433,1575.66 958.779,1579.79 961.125,1583.91 963.471,1588.02 965.817,1592.11 968.163,1596.19 970.509,1600.25 972.855,1604.28 975.201,1608.28 977.547,1612.23 979.893,1616.15 982.239,1620.01 984.585,1623.83 986.931,1627.58 989.277,1631.27 991.623,1634.88 993.969,1638.43 996.315,1641.89 998.661,1645.26 1001.01,1648.54 1003.35,1651.73 1005.7,1654.81 1008.04,1657.78 1010.39,1660.64 1012.74,1663.37 1015.08,1665.99 1017.43,1668.47 1019.77,1670.81 1022.12,1673.01 1024.47,1675.06 1026.81,1676.96 1029.16,1678.71 1031.5,1680.28 1033.85,1681.69 1036.2,1682.93 1038.54,1683.98 1040.89,1684.85 1043.23,1685.53 1045.58,1686.01 1047.93,1686.3 1050.27,1686.38 1052.62,1686.25 1054.96,1685.9 1057.31,1685.34 1059.66,1684.55 1062,1683.54 1064.35,1682.3 1066.69,1680.82 1069.04,1679.1 1071.38,1677.14 1073.73,1674.93 1076.08,1672.47 1078.42,1669.76 1080.77,1666.79 1083.11,1663.56 1085.46,1660.07 1087.81,1656.31 1090.15,1652.28 1092.5,1647.98 1094.84,1643.41 1097.19,1638.56 1099.54,1633.44 1101.88,1628.04 1104.23,1622.36 1106.57,1616.39 1108.92,1610.15 1111.27,1603.62 1113.61,1596.8 1115.96,1589.7 1118.3,1582.32 1120.65,1574.65 1123,1566.69 1125.34,1558.45 1127.69,1549.93 1130.03,1541.12 1132.38,1532.02 1134.73,1522.65 1137.07,1512.99 1139.42,1503.06 1141.76,1492.85 1144.11,1482.36 1146.46,1471.6 1148.8,1460.57 1151.15,1449.27 1153.49,1437.71 1155.84,1425.88 1158.19,1413.79 1160.53,1401.45 1162.88,1388.86 1165.22,1376.02 1167.57,1362.94 1169.91,1349.61 1172.26,1336.06 1174.61,1322.27 1176.95,1308.25 1179.3,1294.02 1181.64,1279.57 1183.99,1264.92 1186.34,1250.06 1188.68,1235 1191.03,1219.75 1193.37,1204.32 1195.72,1188.71 1198.07,1172.93 1200.41,1156.98 1202.76,1140.88 1205.1,1124.62 1207.45,1108.22 1209.8,1091.69 1212.14,1075.03 1214.49,1058.24 1216.83,1041.35 1219.18,1024.35 1221.53,1007.25 1223.87,990.068 1226.22,972.805 1228.56,955.472 1230.91,938.076 1233.26,920.626 1235.6,903.132 1237.95,885.603 1240.29,868.047 1242.64,850.473 1244.99,832.891 1247.33,815.311 1249.68,797.74 1252.02,780.189 1254.37,762.668 1256.72,745.185 1259.06,727.749 1261.41,710.372 1263.75,693.061 1266.1,675.827 1268.44,658.679 1270.79,641.627 1273.14,624.679 1275.48,607.847 1277.83,591.138 1280.17,574.563 1282.52,558.131 1284.87,541.852 1287.21,525.734 1289.56,509.787 1291.9,494.02 1294.25,478.443 1296.6,463.063 1298.94,447.891 1301.29,432.935 1303.63,418.204 1305.98,403.707 1308.33,389.451 1310.67,375.446 1313.02,361.7 1315.36,348.221 1317.71,335.016 1320.06,322.095 1322.4,309.464 1324.75,297.131 1327.09,285.103 1329.44,273.388 1331.79,261.994 1334.13,250.925 1336.48,240.191 1338.82,229.796 1341.17,219.747 1343.52,210.051 1345.86,200.712 1348.21,191.738 1350.55,183.133 1352.9,174.903 1355.25,167.052 1357.59,159.586 1359.94,152.509 1362.28,145.826 1364.63,139.54 1366.97,133.655 1369.32,128.175 1371.67,123.104 1374.01,118.444 1376.36,114.199 1378.7,110.371 1381.05,106.962 1383.4,103.974 1385.74,101.41 1388.09,99.2708 1390.43,97.5579 1392.78,96.2722 1395.13,95.4147 1397.47,94.9858 1399.82,94.9858 1402.16,95.4147 1404.51,96.2722 1406.86,97.5579 1409.2,99.2708 1411.55,101.41 1413.89,103.974 1416.24,106.962 1418.59,110.371 1420.93,114.199 1423.28,118.444 1425.62,123.104 1427.97,128.175 1430.32,133.655 1432.66,139.54 1435.01,145.826 1437.35,152.509 1439.7,159.586 1442.05,167.052 1444.39,174.903 1446.74,183.133 1449.08,191.738 1451.43,200.712 1453.78,210.051 1456.12,219.747 1458.47,229.796 1460.81,240.191 1463.16,250.925 1465.5,261.994 1467.85,273.388 1470.2,285.103 1472.54,297.131 1474.89,309.464 1477.23,322.095 1479.58,335.016 1481.93,348.221 1484.27,361.7 1486.62,375.446 1488.96,389.451 1491.31,403.707 1493.66,418.204 1496,432.935 1498.35,447.891 1500.69,463.063 1503.04,478.443 1505.39,494.02 1507.73,509.787 1510.08,525.734 1512.42,541.852 1514.77,558.131 1517.12,574.563 1519.46,591.138 1521.81,607.847 1524.15,624.679 1526.5,641.627 1528.85,658.679 1531.19,675.827 1533.54,693.061 1535.88,710.372 1538.23,727.749 1540.58,745.185 1542.92,762.668 1545.27,780.189 1547.61,797.74 1549.96,815.311 1552.3,832.891 1554.65,850.473 1557,868.047 1559.34,885.603 1561.69,903.132 1564.03,920.626 1566.38,938.076 1568.73,955.472 1571.07,972.805 1573.42,990.068 1575.76,1007.25 1578.11,1024.35 1580.46,1041.35 1582.8,1058.24 1585.15,1075.03 1587.49,1091.69 1589.84,1108.22 1592.19,1124.62 1594.53,1140.88 1596.88,1156.98 1599.22,1172.93 1601.57,1188.71 1603.92,1204.32 1606.26,1219.75 1608.61,1235 1610.95,1250.06 1613.3,1264.92 1615.65,1279.57 1617.99,1294.02 1620.34,1308.25 1622.68,1322.27 1625.03,1336.06 1627.38,1349.61 1629.72,1362.94 1632.07,1376.02 1634.41,1388.86 1636.76,1401.45 1639.11,1413.79 1641.45,1425.88 1643.8,1437.71 1646.14,1449.27 1648.49,1460.57 1650.83,1471.6 1653.18,1482.36 1655.53,1492.85 1657.87,1503.06 1660.22,1512.99 1662.56,1522.65 1664.91,1532.02 1667.26,1541.12 1669.6,1549.93 1671.95,1558.45 1674.29,1566.69 1676.64,1574.65 1678.99,1582.32 1681.33,1589.7 1683.68,1596.8 1686.02,1603.62 1688.37,1610.15 1690.72,1616.39 1693.06,1622.36 1695.41,1628.04 1697.75,1633.44 1700.1,1638.56 1702.45,1643.41 1704.79,1647.98 1707.14,1652.28 1709.48,1656.31 1711.83,1660.07 1714.18,1663.56 1716.52,1666.79 1718.87,1669.76 1721.21,1672.47 1723.56,1674.93 1725.91,1677.14 1728.25,1679.1 1730.6,1680.82 1732.94,1682.3 1735.29,1683.54 1737.64,1684.55 1739.98,1685.34 1742.33,1685.9 1744.67,1686.25 1747.02,1686.38 1749.36,1686.3 1751.71,1686.01 1754.06,1685.53 1756.4,1684.85 1758.75,1683.98 1761.09,1682.93 1763.44,1681.69 1765.79,1680.28 1768.13,1678.71 1770.48,1676.96 1772.82,1675.06 1775.17,1673.01 1777.52,1670.81 1779.86,1668.47 1782.21,1665.99 1784.55,1663.37 1786.9,1660.64 1789.25,1657.78 1791.59,1654.81 1793.94,1651.73 1796.28,1648.54 1798.63,1645.26 1800.98,1641.89 1803.32,1638.43 1805.67,1634.88 1808.01,1631.27 1810.36,1627.58 1812.71,1623.83 1815.05,1620.01 1817.4,1616.15 1819.74,1612.23 1822.09,1608.28 1824.44,1604.28 1826.78,1600.25 1829.13,1596.19 1831.47,1592.11 1833.82,1588.02 1836.17,1583.91 1838.51,1579.79 1840.86,1575.66 1843.2,1571.54 1845.55,1567.43 1847.89,1563.32 1850.24,1559.23 1852.59,1555.16 1854.93,1551.11 1857.28,1547.09 1859.62,1543.1 1861.97,1539.14 1864.32,1535.22 1866.66,1531.34 1869.01,1527.51 1871.35,1523.73 1873.7,1520 1876.05,1516.33 1878.39,1512.72 1880.74,1509.16 1883.08,1505.67 1885.43,1502.25 1887.78,1498.9 1890.12,1495.62 1892.47,1492.41 1894.81,1489.28 1897.16,1486.23 1899.51,1483.26 1901.85,1480.38 1904.2,1477.57 1906.54,1474.85 1908.89,1472.22 1911.24,1469.68 1913.58,1467.23 1915.93,1464.87 1918.27,1462.59 1920.62,1460.42 1922.97,1458.33 1925.31,1456.34 1927.66,1454.44 1930,1452.64 1932.35,1450.93 1934.7,1449.32 1937.04,1447.8 1939.39,1446.38 1941.73,1445.05 1944.08,1443.81 1946.42,1442.67 1948.77,1441.63 1951.12,1440.67 1953.46,1439.81 1955.81,1439.04 1958.15,1438.35 1960.5,1437.76 1962.85,1437.26 1965.19,1436.84 1967.54,1436.51 1969.88,1436.26 1972.23,1436.1 1974.58,1436.01 1976.92,1436.01 1979.27,1436.08 1981.61,1436.24 1983.96,1436.46 1986.31,1436.76 1988.65,1437.13 1991,1437.57 1993.34,1438.08 1995.69,1438.65 1998.04,1439.28 2000.38,1439.97 2002.73,1440.73 2005.07,1441.54 2007.42,1442.4 2009.77,1443.32 2012.11,1444.28 2014.46,1445.29 2016.8,1446.35 2019.15,1447.45 2021.5,1448.59 2023.84,1449.77 2026.19,1450.99 2028.53,1452.23 2030.88,1453.51 2033.22,1454.82 2035.57,1456.15 2037.92,1457.5 2040.26,1458.88 2042.61,1460.28 2044.95,1461.69 2047.3,1463.11 2049.65,1464.55 2051.99,1466 2054.34,1467.46 2056.68,1468.92 2059.03,1470.38 2061.38,1471.84 2063.72,1473.31 2066.07,1474.77 2068.41,1476.22 2070.76,1477.67 2073.11,1479.1 2075.45,1480.53 2077.8,1481.94 2080.14,1483.34 2082.49,1484.71 2084.84,1486.08 2087.18,1487.42 2089.53,1488.73 2091.87,1490.03 2094.22,1491.3 2096.57,1492.54 2098.91,1493.76 2101.26,1494.94 2103.6,1496.1 2105.95,1497.22 2108.3,1498.31 2110.64,1499.37 2112.99,1500.39 2115.33,1501.37 2117.68,1502.32 2120.03,1503.23 2122.37,1504.1 2124.72,1504.93 2127.06,1505.72 2129.41,1506.47 2131.75,1507.18 2134.1,1507.85 2136.45,1508.48 2138.79,1509.06 2141.14,1509.6 2143.48,1510.1 2145.83,1510.56 2148.18,1510.97 2150.52,1511.34 2152.87,1511.66 2155.21,1511.95 2157.56,1512.19 2159.91,1512.38 2162.25,1512.54 2164.6,1512.65 2166.94,1512.72 2169.29,1512.75 2171.64,1512.74 2173.98,1512.69 2176.33,1512.6 2178.67,1512.47 2181.02,1512.3 2183.37,1512.1 2185.71,1511.86 2188.06,1511.58 2190.4,1511.26 2192.75,1510.91 2195.1,1510.53 2197.44,1510.12 2199.79,1509.67 2202.13,1509.2 2204.48,1508.69 2206.83,1508.16 2209.17,1507.6 2211.52,1507.01 2213.86,1506.4 2216.21,1505.76 2218.56,1505.1 2220.9,1504.42 2223.25,1503.72 2225.59,1503 2227.94,1502.27 2230.28,1501.51 2232.63,1500.74 2234.98,1499.96 2237.32,1499.17 2239.67,1498.36 2242.01,1497.54 2244.36,1496.72 2246.71,1495.89 2249.05,1495.05 2251.4,1494.2 2253.74,1493.36 2256.09,1492.51 2258.44,1491.66 2260.78,1490.81 2263.13,1489.96 2265.47,1489.11 2267.82,1488.27 2270.17,1487.43 2272.51,1486.59 2274.86,1485.77 2277.2,1484.95 2279.55,1484.15 2281.9,1483.35 2284.24,1482.56 2286.59,1481.79 2288.93,1481.03 2291.28,1480.28 2293.63,1479.55 2295.97,1478.84 2298.32,1478.14 2300.66,1477.46 2303.01,1476.8 2305.36,1476.16 2307.7,1475.54 2310.05,1474.94 2312.39,1474.37 2314.74,1473.81 2317.09,1473.28 2319.43,1472.77 2321.78,1472.28 2324.12,1471.82 2326.47,1471.39 2328.81,1470.97 2331.16,1470.59 2333.51,1470.23 2335.85,1469.89 2338.2,1469.59 2340.54,1469.31 2342.89,1469.05 2345.24,1468.82 2347.58,1468.62 2349.93,1468.45 2352.27,1468.3 2354.62,1468.18 2356.97,1468.09 2359.31,1468.02 2361.66,1467.99 2364,1467.97 2366.35,1467.99 2368.7,1468.03 2371.04,1468.09 2373.39,1468.18 2375.73,1468.3 2378.08,1468.44 2380.43,1468.6 2382.77,1468.79 2385.12,1469.01 2387.46,1469.24 2389.81,1469.5 2392.16,1469.78 2394.5,1470.08 2396.85,1470.4 2399.19,1470.75 2401.54,1471.11 2403.89,1471.49 2406.23,1471.89 2408.58,1472.31 2410.92,1472.74 2413.27,1473.19 2415.61,1473.66 2417.96,1474.14 2420.31,1474.63 2422.65,1475.14 2425,1475.66 2427.34,1476.19 2429.69,1476.73 2432.04,1477.28 2434.38,1477.84 2436.73,1478.41 2439.07,1478.98 2441.42,1479.56 2443.77,1480.15 2446.11,1480.74 2448.46,1481.34 2450.8,1481.94 2453.15,1482.54 2455.5,1483.14 2457.84,1483.75 2460.19,1484.35 2462.53,1484.95 2464.88,1485.55 2467.23,1486.15 2469.57,1486.75 2471.92,1487.34 2474.26,1487.93 2476.61,1488.51 2478.96,1489.08 2481.3,1489.65 2483.65,1490.21 2485.99,1490.76 2488.34,1491.3 2490.69,1491.83 2493.03,1492.35 2495.38,1492.86 2497.72,1493.36 2500.07,1493.85 2502.42,1494.32 2504.76,1494.78 2507.11,1495.23 2509.45,1495.66 2511.8,1496.08 2514.14,1496.49 2516.49,1496.87 2518.84,1497.24 2521.18,1497.6 2523.53,1497.94 2525.87,1498.26 2528.22,1498.57 2530.57,1498.85 2532.91,1499.12 2535.26,1499.38 2537.6,1499.61 2539.95,1499.83 2542.3,1500.02 2544.64,1500.2 2546.99,1500.36 2549.33,1500.51 2551.68,1500.63 2554.03,1500.73 2556.37,1500.82 2558.72,1500.89 2561.06,1500.94 2563.41,1500.97 2565.76,1500.98 2568.1,1500.98 2570.45,1500.96 "/>
</svg>
